<svg id="Back" xmlns="http://www.w3.org/2000/svg" viewBox="0 0 2000 1500"><defs><style>.cls-1{fill:#fff;opacity:0.17;}</style></defs><title>BackClouds</title><path class="cls-1" d="M2135.65,304.84a182.75,182.75,0,0,0-182.75-182.75c-94.26,0-171.85,71.37-181.69,163-1.32,0-2.64-.06-4-.06a136.06,136.06,0,0,0-125.39,188.71,130.67,130.67,0,0,0-16.44,8.13A247.13,247.13,0,0,0,1519.13,458c-112.93,0-208.22,75.45-238.25,178.69-8.3-.75-16.7-1.16-25.2-1.16a274.3,274.3,0,0,0-171.56,59.95A300.27,300.27,0,0,0,770.3,667a107.28,107.28,0,0,0-160-27.71C600.61,540.88,517.61,464,416.64,464a193.89,193.89,0,0,0-128.39,48.36A145,145,0,0,0,128.08,346.65a124,124,0,0,0,6.66-40.2,124.17,124.17,0,1,0-248.35,0,123.68,123.68,0,0,0,11.74,52.74H-208.49l37.16,986.73,2243.63-42.69L2090,425.64A182,182,0,0,0,2135.65,304.84Z"/></svg>