<svg id="Layer_1" data-name="Layer 1" xmlns="http://www.w3.org/2000/svg" viewBox="0 0 200 200"><defs><style>.cls-1{fill:#838d93;}.cls-2{fill:#edf8f9;}.cls-3{fill:#dae4e5;}</style></defs><title>Backend</title><path class="cls-1" d="M82.76,74.75l-6,6A37.54,37.54,0,0,0,63,75.14V66.58a4.18,4.18,0,0,0-4.17-4.17H52.49a4.18,4.18,0,0,0-4.17,4.17v8.58a37.54,37.54,0,0,0-13.65,5.67L28.6,74.75a4.18,4.18,0,0,0-5.89,0l-4.5,4.5a4.18,4.18,0,0,0,0,5.89l6.1,6.1a37.54,37.54,0,0,0-5.62,13.63H10A4.18,4.18,0,0,0,5.86,109v6.37A4.18,4.18,0,0,0,10,119.58H18.7a37.54,37.54,0,0,0,5.64,13.59l-6.14,6.14a4.18,4.18,0,0,0,0,5.89l4.5,4.5a4.18,4.18,0,0,0,5.89,0l6.14-6.14a37.54,37.54,0,0,0,13.59,5.64v8.67A4.18,4.18,0,0,0,52.49,162h6.37A4.18,4.18,0,0,0,63,157.87v-8.65a37.54,37.54,0,0,0,13.63-5.62l6.1,6.1a4.18,4.18,0,0,0,5.89,0l4.5-4.5a4.18,4.18,0,0,0,0-5.89l-6.08-6.08a37.54,37.54,0,0,0,5.67-13.65h8.58a4.18,4.18,0,0,0,4.17-4.17V109a4.18,4.18,0,0,0-4.17-4.17H92.77a37.54,37.54,0,0,0-5.66-13.69l6-6a4.18,4.18,0,0,0,0-5.89l-4.5-4.5A4.18,4.18,0,0,0,82.76,74.75Zm-9.59,54.87a24.67,24.67,0,1,1,0-34.88A24.67,24.67,0,0,1,73.17,129.62Z"/><path class="cls-2" d="M152.37,29.28l-5.6,5.6a34.77,34.77,0,0,0-12.68-5.24V21.71a3.87,3.87,0,0,0-3.86-3.86h-5.9a3.87,3.87,0,0,0-3.86,3.86v7.95a34.77,34.77,0,0,0-12.64,5.26l-5.63-5.63a3.87,3.87,0,0,0-5.46,0l-4.17,4.17a3.87,3.87,0,0,0,0,5.46l5.65,5.65A34.77,34.77,0,0,0,93,57.18H85A3.87,3.87,0,0,0,81.14,61v5.9A3.87,3.87,0,0,0,85,70.8h8a34.77,34.77,0,0,0,5.22,12.59l-5.68,5.68a3.87,3.87,0,0,0,0,5.46l4.17,4.17a3.87,3.87,0,0,0,5.46,0L107.89,93a34.77,34.77,0,0,0,12.59,5.22v8a3.87,3.87,0,0,0,3.86,3.86h5.9a3.87,3.87,0,0,0,3.86-3.86v-8a34.77,34.77,0,0,0,12.62-5.2l5.65,5.65a3.87,3.87,0,0,0,5.46,0L162,94.53a3.87,3.87,0,0,0,0-5.46l-5.63-5.63a34.77,34.77,0,0,0,5.26-12.64h7.95a3.87,3.87,0,0,0,3.86-3.86V61a3.87,3.87,0,0,0-3.86-3.86h-7.93a34.77,34.77,0,0,0-5.24-12.68l5.6-5.6a3.87,3.87,0,0,0,0-5.46l-4.17-4.17A3.87,3.87,0,0,0,152.37,29.28ZM143.48,80.1a22.85,22.85,0,1,1,0-32.31A22.85,22.85,0,0,1,143.48,80.1Z"/><path class="cls-3" d="M163.7,111.89l-4.91,4.91a30.52,30.52,0,0,0-11.12-4.6v-7a3.4,3.4,0,0,0-3.39-3.39H139.1a3.4,3.4,0,0,0-3.39,3.39v7a30.51,30.51,0,0,0-11.09,4.61l-4.94-4.94a3.4,3.4,0,0,0-4.79,0l-3.66,3.66a3.4,3.4,0,0,0,0,4.79l5,5a30.52,30.52,0,0,0-4.57,11.08h-7a3.4,3.4,0,0,0-3.39,3.39v5.18a3.4,3.4,0,0,0,3.39,3.39h7.05a30.51,30.51,0,0,0,4.58,11l-5,5a3.4,3.4,0,0,0,0,4.79l3.66,3.66a3.4,3.4,0,0,0,4.79,0l5-5a30.51,30.51,0,0,0,11,4.58v7.05a3.4,3.4,0,0,0,3.39,3.39h5.18a3.4,3.4,0,0,0,3.39-3.39v-7a30.52,30.52,0,0,0,11.08-4.57l5,5a3.4,3.4,0,0,0,4.79,0l3.66-3.66a3.4,3.4,0,0,0,0-4.79l-4.94-4.94a30.51,30.51,0,0,0,4.61-11.09h7a3.4,3.4,0,0,0,3.39-3.39v-5.18a3.4,3.4,0,0,0-3.39-3.39h-7a30.52,30.52,0,0,0-4.6-11.12l4.91-4.91a3.4,3.4,0,0,0,0-4.79l-3.66-3.66A3.4,3.4,0,0,0,163.7,111.89Zm-7.8,44.61a20.05,20.05,0,1,1,0-28.36A20.05,20.05,0,0,1,155.91,156.5Z"/></svg>