<svg id="Layer_2" data-name="Layer 2" xmlns="http://www.w3.org/2000/svg" viewBox="0 0 1200 800"><defs><style>.cls-1{fill:#e83838;}.cls-2{fill:#961f27;}.cls-3{fill:#e53535;}.cls-4{fill:#c92828;}.cls-5{fill:#ce3232;}</style></defs><title>ContactBackground</title><path class="cls-1" d="M101.85,192.59q0,25.93-3.16,44.59A103.84,103.84,0,0,1,87,271q-10.75,18.66-27.83,28.78a73.05,73.05,0,0,1-37.95,10.12,72.34,72.34,0,0,1-43.09-13.6q-19.06-13.6-28.7-37.63a139.77,139.77,0,0,1-7.19-29,241.22,241.22,0,0,1-2.29-34.39,330.23,330.23,0,0,1,2.53-43q2.53-19.13,7.91-32.89,9.33-22.77,27.12-34.71T19.95,72.73A79.2,79.2,0,0,1,49.52,78a67.48,67.48,0,0,1,23.32,15.5,88.66,88.66,0,0,1,17,25.22Q101.85,144.84,101.85,192.59Zm-43.32-3.16q0-28.94-3.48-47.36t-11.7-27.83q-8.22-9.41-22.77-9.41-20.87,0-29,21t-8.14,64.83q0,29.73,3.48,48.7t11.7,28.7q8.22,9.72,22.29,9.72,14.55,0,22.77-10.12t11.54-28.94Q58.53,219.94,58.53,189.42Z"/><path class="cls-1" d="M208.58,284.61V140.72q-40.16,30.83-54.08,30.83a16,16,0,0,1-11.78-5.3A17.07,17.07,0,0,1,137.59,154q0-8.06,5.06-11.86t17.87-9.8q19.13-9,30.6-19a129.55,129.55,0,0,0,20.32-22.29Q220.28,78.74,223,75.9t10.12-2.85a16.2,16.2,0,0,1,13.44,6.48q5.06,6.49,5.06,17.87v181q0,31.78-21.66,31.78-9.65,0-15.5-6.48T208.58,284.61Z"/><path class="cls-1" d="M401,284.61V140.72q-40.16,30.83-54.08,30.83a16,16,0,0,1-11.78-5.3A17.07,17.07,0,0,1,330,154q0-8.06,5.06-11.86t17.87-9.8q19.13-9,30.6-19a129.55,129.55,0,0,0,20.32-22.29q8.85-12.33,11.54-15.18t10.12-2.85A16.2,16.2,0,0,1,439,79.53Q444,86,444,97.4v181q0,31.78-21.66,31.78-9.65,0-15.5-6.48T401,284.61Z"/><path class="cls-1" d="M679.13,192.59q0,25.93-3.16,44.59A103.85,103.85,0,0,1,664.27,271q-10.75,18.66-27.83,28.78a75.59,75.59,0,0,1-81-3.48q-19.06-13.6-28.7-37.63a139.77,139.77,0,0,1-7.19-29,241.22,241.22,0,0,1-2.29-34.39,330.23,330.23,0,0,1,2.53-43q2.53-19.13,7.91-32.89Q537,96.61,554.77,84.67t42.45-11.94A79.2,79.2,0,0,1,626.79,78a67.48,67.48,0,0,1,23.32,15.5,88.64,88.64,0,0,1,17,25.22Q679.13,144.84,679.13,192.59Zm-43.32-3.16q0-28.94-3.48-47.36t-11.7-27.83q-8.22-9.41-22.77-9.41-20.87,0-29,21t-8.14,64.83q0,29.73,3.48,48.7t11.7,28.7q8.22,9.72,22.29,9.72,14.55,0,22.77-10.12t11.54-28.94Q635.81,219.94,635.81,189.42Z"/><path class="cls-1" d="M785.86,284.61V140.72q-40.16,30.83-54.08,30.83a16,16,0,0,1-11.78-5.3A17.07,17.07,0,0,1,714.86,154q0-8.06,5.06-11.86t17.87-9.8q19.13-9,30.6-19A129.55,129.55,0,0,0,788.7,91.08q8.85-12.33,11.54-15.18t10.12-2.85a16.2,16.2,0,0,1,13.44,6.48q5.06,6.49,5.06,17.87v181q0,31.78-21.66,31.78-9.65,0-15.5-6.48T785.86,284.61Z"/><path class="cls-2" d="M20.86,418.61v-25.3q-7.06,5.42-9.51,5.42a2.81,2.81,0,0,1-2.07-.93,3,3,0,0,1-.9-2.15,2.44,2.44,0,0,1,.89-2.08,19.71,19.71,0,0,1,3.14-1.72,23.42,23.42,0,0,0,5.38-3.34,22.74,22.74,0,0,0,3.57-3.92q1.56-2.17,2-2.67a2.43,2.43,0,0,1,1.78-.5,2.85,2.85,0,0,1,2.36,1.14,5,5,0,0,1,.89,3.14v31.83q0,5.59-3.81,5.59A3.5,3.5,0,0,1,21.89,422,4.87,4.87,0,0,1,20.86,418.61Z"/><path class="cls-2" d="M69.76,402.43a47.66,47.66,0,0,1-.56,7.84,18.26,18.26,0,0,1-2.06,5.95,13.67,13.67,0,0,1-4.89,5.06,12.85,12.85,0,0,1-6.67,1.78A12.72,12.72,0,0,1,48,420.67a14.55,14.55,0,0,1-5-6.62A24.56,24.56,0,0,1,41.7,409a42.38,42.38,0,0,1-.4-6,58,58,0,0,1,.44-7.56,25,25,0,0,1,1.39-5.78,12.44,12.44,0,0,1,12.23-8.2,13.92,13.92,0,0,1,5.2.93,11.87,11.87,0,0,1,4.1,2.72,15.6,15.6,0,0,1,3,4.43Q69.76,394,69.76,402.43Zm-7.62-.56a46.32,46.32,0,0,0-.61-8.33,10.25,10.25,0,0,0-2.06-4.89,5,5,0,0,0-4-1.65,5.14,5.14,0,0,0-5.1,3.7q-1.43,3.7-1.43,11.4a49,49,0,0,0,.61,8.56,10.76,10.76,0,0,0,2.06,5,5.37,5.37,0,0,0,7.92-.07,11,11,0,0,0,2-5.09A51.82,51.82,0,0,0,62.15,401.88Z"/><path class="cls-2" d="M88.53,418.61v-25.3q-7.06,5.42-9.51,5.42A2.81,2.81,0,0,1,77,397.8a3,3,0,0,1-.9-2.15,2.44,2.44,0,0,1,.89-2.08,19.71,19.71,0,0,1,3.14-1.72,23.42,23.42,0,0,0,5.38-3.34A22.74,22.74,0,0,0,89,384.58q1.56-2.17,2-2.67a2.43,2.43,0,0,1,1.78-.5,2.85,2.85,0,0,1,2.36,1.14,5,5,0,0,1,.89,3.14v31.83q0,5.59-3.81,5.59A3.5,3.5,0,0,1,89.56,422,4.87,4.87,0,0,1,88.53,418.61Z"/><path class="cls-3" d="M436,581.39A198.32,198.32,0,0,1,433.73,614a76,76,0,0,1-8.56,24.75,56.84,56.84,0,0,1-20.35,21,55.29,55.29,0,0,1-59.27-2.54q-13.94-9.94-21-27.53a102.2,102.2,0,0,1-5.26-21.22,176.44,176.44,0,0,1-1.68-25.16,241.54,241.54,0,0,1,1.85-31.46,103.81,103.81,0,0,1,5.78-24.06q6.82-16.65,19.83-25.39t31.05-8.73a57.94,57.94,0,0,1,21.63,3.87,49.37,49.37,0,0,1,17.06,11.33,64.83,64.83,0,0,1,12.43,18.45Q436,546.46,436,581.39Zm-31.69-2.31q0-21.17-2.54-34.64t-8.56-20.35q-6-6.88-16.65-6.88-15.27,0-21.22,15.38t-6,47.42q0,21.74,2.54,35.62t8.56,21q6,7.11,16.31,7.11,10.64,0,16.65-7.4t8.44-21.17Q404.36,601.4,404.36,579.08Z"/><path class="cls-3" d="M514.11,648.7V543.46Q484.74,566,474.56,566a11.68,11.68,0,0,1-8.62-3.87,12.48,12.48,0,0,1-3.76-9q0-5.9,3.7-8.67T479,537.33q14-6.59,22.38-13.88a94.74,94.74,0,0,0,14.86-16.31q6.48-9,8.44-11.1T532,494a11.85,11.85,0,0,1,9.83,4.74q3.7,4.74,3.7,13.07V644.19q0,23.25-15.84,23.25a14.53,14.53,0,0,1-11.33-4.74Q514.11,658,514.11,648.7Z"/><path class="cls-3" d="M654.86,648.7V543.46Q625.48,566,615.31,566a11.68,11.68,0,0,1-8.62-3.87,12.49,12.49,0,0,1-3.76-9q0-5.9,3.7-8.67t13.07-7.17q14-6.59,22.38-13.88a94.7,94.7,0,0,0,14.86-16.31q6.48-9,8.44-11.1t7.4-2.08a11.85,11.85,0,0,1,9.83,4.74q3.7,4.74,3.7,13.07V644.19q0,23.25-15.84,23.25a14.53,14.53,0,0,1-11.33-4.74Q654.86,658,654.86,648.7Z"/><path class="cls-3" d="M858.29,581.39A198.37,198.37,0,0,1,856,614a75.94,75.94,0,0,1-8.56,24.75,56.84,56.84,0,0,1-20.35,21,55.29,55.29,0,0,1-59.27-2.54q-13.94-9.94-21-27.53a102.27,102.27,0,0,1-5.26-21.22,176.51,176.51,0,0,1-1.68-25.16,241.54,241.54,0,0,1,1.85-31.46,103.81,103.81,0,0,1,5.78-24.06q6.82-16.65,19.83-25.39t31.05-8.73A57.94,57.94,0,0,1,820,497.6a49.37,49.37,0,0,1,17.06,11.33,64.83,64.83,0,0,1,12.43,18.45Q858.29,546.46,858.29,581.39Zm-31.69-2.31q0-21.17-2.54-34.64t-8.56-20.35q-6-6.88-16.65-6.88-15.27,0-21.22,15.38t-6,47.42q0,21.74,2.54,35.62t8.56,21q6,7.11,16.31,7.11,10.64,0,16.65-7.4t8.44-21.17Q826.61,601.4,826.61,579.08Z"/><path class="cls-3" d="M936.36,648.7V543.46Q907,566,896.81,566a11.68,11.68,0,0,1-8.62-3.87,12.49,12.49,0,0,1-3.76-9q0-5.9,3.7-8.67t13.07-7.17q14-6.59,22.38-13.88a94.7,94.7,0,0,0,14.86-16.31q6.48-9,8.44-11.1t7.4-2.08a11.85,11.85,0,0,1,9.83,4.74q3.7,4.74,3.7,13.07V644.19q0,23.25-15.84,23.25a14.53,14.53,0,0,1-11.33-4.74Q936.36,658,936.36,648.7Z"/><path class="cls-3" d="M1077.11,648.7V543.46Q1047.73,566,1037.56,566a11.68,11.68,0,0,1-8.62-3.87,12.49,12.49,0,0,1-3.76-9q0-5.9,3.7-8.67t13.07-7.17q14-6.59,22.38-13.88a94.7,94.7,0,0,0,14.86-16.31q6.48-9,8.44-11.1T1095,494a11.85,11.85,0,0,1,9.83,4.74q3.7,4.74,3.7,13.07V644.19q0,23.25-15.84,23.25a14.53,14.53,0,0,1-11.33-4.74Q1077.11,658,1077.11,648.7Z"/><path class="cls-3" d="M1280.54,581.39a198.37,198.37,0,0,1-2.31,32.61,75.94,75.94,0,0,1-8.56,24.75,56.84,56.84,0,0,1-20.35,21,55.29,55.29,0,0,1-59.27-2.54q-13.94-9.94-21-27.53a102.27,102.27,0,0,1-5.26-21.22,176.51,176.51,0,0,1-1.68-25.16A241.54,241.54,0,0,1,1164,551.9a103.81,103.81,0,0,1,5.78-24.06q6.82-16.65,19.83-25.39t31.05-8.73a57.94,57.94,0,0,1,21.63,3.87,49.37,49.37,0,0,1,17.06,11.33,64.83,64.83,0,0,1,12.43,18.45Q1280.54,546.46,1280.54,581.39Zm-31.69-2.31q0-21.17-2.54-34.64t-8.56-20.35q-6-6.88-16.65-6.88-15.27,0-21.22,15.38t-6,47.42q0,21.74,2.54,35.62t8.56,21q6,7.11,16.31,7.11,10.64,0,16.65-7.4t8.44-21.17Q1248.85,601.4,1248.85,579.08Z"/><path class="cls-4" d="M-8.82,727.37V658.48q-19.23,14.76-25.89,14.76a7.65,7.65,0,0,1-5.64-2.54,8.17,8.17,0,0,1-2.46-5.87q0-3.86,2.42-5.68a53.83,53.83,0,0,1,8.55-4.69,63.89,63.89,0,0,0,14.65-9.08,62,62,0,0,0,9.73-10.67q4.24-5.91,5.53-7.27t4.85-1.36a7.76,7.76,0,0,1,6.44,3.1q2.42,3.11,2.42,8.55v86.68q0,15.22-10.37,15.22A9.51,9.51,0,0,1-6,736.54Q-8.82,733.43-8.82,727.37Z"/><path class="cls-4" d="M124.34,683.31a129.86,129.86,0,0,1-1.51,21.35,49.73,49.73,0,0,1-5.6,16.2,37.21,37.21,0,0,1-13.32,13.78,35,35,0,0,1-18.17,4.84A34.63,34.63,0,0,1,65.1,733a39.61,39.61,0,0,1-13.74-18,67,67,0,0,1-3.44-13.89,115.53,115.53,0,0,1-1.1-16.47A158.09,158.09,0,0,1,48,664a68,68,0,0,1,3.79-15.75q4.47-10.9,13-16.62t20.33-5.72a37.92,37.92,0,0,1,14.16,2.54,32.31,32.31,0,0,1,11.17,7.42A42.47,42.47,0,0,1,118.59,648Q124.34,660.45,124.34,683.31ZM103.6,681.8a126.19,126.19,0,0,0-1.67-22.67q-1.67-8.82-5.6-13.32t-10.9-4.5q-10,0-13.89,10.07t-3.9,31a133.38,133.38,0,0,0,1.67,23.32q1.66,9.08,5.6,13.74a13.25,13.25,0,0,0,10.67,4.66q7,0,10.9-4.85T102,705.42A141.16,141.16,0,0,0,103.6,681.8Z"/><path class="cls-4" d="M175.44,727.37V658.48q-19.23,14.76-25.89,14.76a7.65,7.65,0,0,1-5.64-2.54,8.17,8.17,0,0,1-2.46-5.87q0-3.86,2.42-5.68a53.85,53.85,0,0,1,8.55-4.69,63.89,63.89,0,0,0,14.65-9.08,62.06,62.06,0,0,0,9.73-10.67q4.24-5.91,5.53-7.27t4.84-1.36a7.76,7.76,0,0,1,6.43,3.1q2.42,3.11,2.42,8.55v86.68q0,15.22-10.37,15.22a9.51,9.51,0,0,1-7.42-3.1Q175.44,733.43,175.44,727.37Z"/><path class="cls-4" d="M267.58,727.37V658.48q-19.23,14.76-25.89,14.76a7.65,7.65,0,0,1-5.64-2.54,8.17,8.17,0,0,1-2.46-5.87q0-3.86,2.42-5.68a53.85,53.85,0,0,1,8.55-4.69,63.89,63.89,0,0,0,14.65-9.08,62.06,62.06,0,0,0,9.73-10.67q4.24-5.91,5.53-7.27t4.84-1.36a7.76,7.76,0,0,1,6.43,3.1q2.42,3.11,2.42,8.55v86.68q0,15.22-10.37,15.22a9.51,9.51,0,0,1-7.42-3.1Q267.58,733.43,267.58,727.37Z"/><path class="cls-4" d="M400.74,683.31a129.86,129.86,0,0,1-1.51,21.35,49.73,49.73,0,0,1-5.6,16.2,37.21,37.21,0,0,1-13.32,13.78,35,35,0,0,1-18.17,4.84A34.63,34.63,0,0,1,341.5,733a39.6,39.6,0,0,1-13.74-18,66.92,66.92,0,0,1-3.45-13.89,115.46,115.46,0,0,1-1.1-16.47A158,158,0,0,1,324.43,664a67.92,67.92,0,0,1,3.79-15.75q4.46-10.9,13-16.62t20.33-5.72a37.92,37.92,0,0,1,14.16,2.54,32.31,32.31,0,0,1,11.17,7.42A42.47,42.47,0,0,1,395,648Q400.74,660.45,400.74,683.31ZM380,681.8a126.19,126.19,0,0,0-1.67-22.67q-1.67-8.82-5.6-13.32t-10.9-4.5q-10,0-13.89,10.07t-3.9,31a133.44,133.44,0,0,0,1.67,23.32q1.67,9.08,5.6,13.74A13.25,13.25,0,0,0,362,724.12q7,0,10.9-4.85t5.53-13.85A141.16,141.16,0,0,0,380,681.8Z"/><path class="cls-4" d="M451.85,727.37V658.48Q432.61,673.25,426,673.25a7.65,7.65,0,0,1-5.64-2.54,8.17,8.17,0,0,1-2.46-5.87q0-3.86,2.42-5.68a53.85,53.85,0,0,1,8.55-4.69,63.89,63.89,0,0,0,14.65-9.08,62.06,62.06,0,0,0,9.73-10.67q4.24-5.91,5.53-7.27t4.84-1.36a7.76,7.76,0,0,1,6.43,3.1q2.42,3.11,2.42,8.55v86.68q0,15.22-10.37,15.22a9.51,9.51,0,0,1-7.42-3.1Q451.85,733.43,451.85,727.37Z"/><path class="cls-4" d="M931.78,342.27a77.08,77.08,0,0,1-.9,12.67,29.53,29.53,0,0,1-3.33,9.62,22.08,22.08,0,0,1-7.91,8.18,21.48,21.48,0,0,1-23-1,23.5,23.5,0,0,1-8.15-10.69,39.65,39.65,0,0,1-2-8.25,68.54,68.54,0,0,1-.65-9.77,93.84,93.84,0,0,1,.72-12.22,40.29,40.29,0,0,1,2.25-9.35,20.1,20.1,0,0,1,19.77-13.25,22.51,22.51,0,0,1,8.4,1.5,19.17,19.17,0,0,1,6.63,4.4,25.18,25.18,0,0,1,4.83,7.17Q931.78,328.7,931.78,342.27Zm-12.31-.9a74.92,74.92,0,0,0-1-13.46,16.56,16.56,0,0,0-3.33-7.91,8.14,8.14,0,0,0-6.47-2.67q-5.93,0-8.25,6t-2.31,18.42a79.18,79.18,0,0,0,1,13.84q1,5.39,3.33,8.16a8.68,8.68,0,0,0,12.8-.11,17.84,17.84,0,0,0,3.28-8.22A83.77,83.77,0,0,0,919.47,341.37Z"/><path class="cls-4" d="M962.11,368.42V327.54q-11.41,8.76-15.37,8.76a4.54,4.54,0,0,1-3.35-1.51,4.85,4.85,0,0,1-1.46-3.48,3.94,3.94,0,0,1,1.44-3.37,31.87,31.87,0,0,1,5.08-2.79,37.9,37.9,0,0,0,8.69-5.39,36.83,36.83,0,0,0,5.77-6.33q2.52-3.51,3.28-4.31a3.92,3.92,0,0,1,2.88-.81,4.6,4.6,0,0,1,3.82,1.84,8.06,8.06,0,0,1,1.44,5.08v51.45q0,9-6.16,9a5.64,5.64,0,0,1-4.4-1.84A7.87,7.87,0,0,1,962.11,368.42Z"/><path class="cls-4" d="M1016.79,368.42V327.54q-11.41,8.76-15.37,8.76a4.54,4.54,0,0,1-3.35-1.51,4.85,4.85,0,0,1-1.46-3.48,3.94,3.94,0,0,1,1.44-3.37,31.87,31.87,0,0,1,5.08-2.79,37.9,37.9,0,0,0,8.69-5.39,36.83,36.83,0,0,0,5.77-6.33q2.52-3.51,3.28-4.31a3.92,3.92,0,0,1,2.88-.81,4.6,4.6,0,0,1,3.82,1.84,8.06,8.06,0,0,1,1.44,5.08v51.45q0,9-6.16,9a5.64,5.64,0,0,1-4.4-1.84A7.87,7.87,0,0,1,1016.79,368.42Z"/><path class="cls-4" d="M1095.82,342.27a77.08,77.08,0,0,1-.9,12.67,29.53,29.53,0,0,1-3.33,9.62,22.08,22.08,0,0,1-7.91,8.18,21.48,21.48,0,0,1-23-1,23.5,23.5,0,0,1-8.15-10.69,39.65,39.65,0,0,1-2-8.25,68.54,68.54,0,0,1-.65-9.77,93.84,93.84,0,0,1,.72-12.22,40.29,40.29,0,0,1,2.25-9.35,20.1,20.1,0,0,1,19.77-13.25,22.51,22.51,0,0,1,8.4,1.5,19.17,19.17,0,0,1,6.63,4.4,25.18,25.18,0,0,1,4.83,7.17Q1095.82,328.7,1095.82,342.27Zm-12.31-.9a74.92,74.92,0,0,0-1-13.46,16.56,16.56,0,0,0-3.33-7.91,8.14,8.14,0,0,0-6.47-2.67q-5.93,0-8.25,6t-2.31,18.42a79.18,79.18,0,0,0,1,13.84q1,5.39,3.33,8.16a8.68,8.68,0,0,0,12.8-.11,17.84,17.84,0,0,0,3.28-8.22A83.77,83.77,0,0,0,1083.51,341.37Z"/><path class="cls-4" d="M1126.15,368.42V327.54q-11.41,8.76-15.37,8.76a4.54,4.54,0,0,1-3.35-1.51,4.85,4.85,0,0,1-1.46-3.48,3.94,3.94,0,0,1,1.44-3.37,31.87,31.87,0,0,1,5.08-2.79,37.9,37.9,0,0,0,8.69-5.39,36.83,36.83,0,0,0,5.77-6.33q2.52-3.51,3.28-4.31a3.92,3.92,0,0,1,2.88-.81,4.6,4.6,0,0,1,3.82,1.84,8.06,8.06,0,0,1,1.44,5.08v51.45q0,9-6.16,9a5.64,5.64,0,0,1-4.4-1.84A7.87,7.87,0,0,1,1126.15,368.42Z"/><path class="cls-4" d="M1180.83,368.42V327.54q-11.41,8.76-15.37,8.76a4.54,4.54,0,0,1-3.35-1.51,4.85,4.85,0,0,1-1.46-3.48,3.94,3.94,0,0,1,1.44-3.37,31.87,31.87,0,0,1,5.08-2.79,37.9,37.9,0,0,0,8.69-5.39,36.83,36.83,0,0,0,5.77-6.33q2.52-3.51,3.28-4.31a3.92,3.92,0,0,1,2.88-.81,4.6,4.6,0,0,1,3.82,1.84,8.06,8.06,0,0,1,1.44,5.08v51.45q0,9-6.16,9a5.64,5.64,0,0,1-4.4-1.84A7.87,7.87,0,0,1,1180.83,368.42Z"/><path class="cls-5" d="M724.68,58.8A104.6,104.6,0,0,1,723.46,76,40.07,40.07,0,0,1,718.94,89a30,30,0,0,1-10.73,11.1A29.15,29.15,0,0,1,677,98.8a31.91,31.91,0,0,1-11.07-14.51,53.9,53.9,0,0,1-2.78-11.19,93,93,0,0,1-.88-13.26,127.46,127.46,0,0,1,1-16.59,54.8,54.8,0,0,1,3-12.68,28.67,28.67,0,0,1,10.46-13.39,28.7,28.7,0,0,1,16.37-4.6,30.55,30.55,0,0,1,11.4,2,26,26,0,0,1,9,6A34.22,34.22,0,0,1,720,30.32Q724.67,40.38,724.68,58.8ZM708,57.58a101.66,101.66,0,0,0-1.34-18.26q-1.34-7.1-4.51-10.73A11.05,11.05,0,0,0,693.33,25q-8.05,0-11.19,8.11t-3.14,25a107.38,107.38,0,0,0,1.34,18.78q1.34,7.32,4.51,11.07a11.78,11.78,0,0,0,17.38-.15q3.17-3.9,4.45-11.16A113.7,113.7,0,0,0,708,57.58Z"/><path class="cls-5" d="M765.84,94.29V38.79Q750.35,50.69,745,50.69a6.16,6.16,0,0,1-4.54-2,6.58,6.58,0,0,1-2-4.73,5.34,5.34,0,0,1,2-4.57,43.31,43.31,0,0,1,6.89-3.78,51.47,51.47,0,0,0,11.8-7.32,50,50,0,0,0,7.84-8.6q3.41-4.76,4.45-5.85t3.9-1.1a6.25,6.25,0,0,1,5.18,2.5,10.94,10.94,0,0,1,2,6.89V91.91q0,12.26-8.35,12.26a7.66,7.66,0,0,1-6-2.5Q765.84,99.17,765.84,94.29Z"/><path class="cls-5" d="M840.06,94.29V38.79Q824.56,50.69,819.2,50.69a6.16,6.16,0,0,1-4.54-2,6.58,6.58,0,0,1-2-4.73,5.34,5.34,0,0,1,2-4.57,43.31,43.31,0,0,1,6.89-3.78,51.47,51.47,0,0,0,11.8-7.32,50,50,0,0,0,7.84-8.6q3.41-4.76,4.45-5.85t3.9-1.1a6.25,6.25,0,0,1,5.18,2.5,10.94,10.94,0,0,1,2,6.89V91.91q0,12.26-8.35,12.26a7.66,7.66,0,0,1-6-2.5Q840.06,99.17,840.06,94.29Z"/><path class="cls-5" d="M947.33,58.8A104.6,104.6,0,0,1,946.11,76,40.07,40.07,0,0,1,941.59,89a30,30,0,0,1-10.73,11.1,29.15,29.15,0,0,1-31.25-1.34,31.91,31.91,0,0,1-11.07-14.51,53.9,53.9,0,0,1-2.78-11.19,93,93,0,0,1-.88-13.26,127.46,127.46,0,0,1,1-16.59,54.8,54.8,0,0,1,3-12.68,28.67,28.67,0,0,1,10.46-13.39,28.7,28.7,0,0,1,16.37-4.6,30.55,30.55,0,0,1,11.4,2,26,26,0,0,1,9,6,34.22,34.22,0,0,1,6.56,9.73Q947.32,40.38,947.33,58.8Zm-16.71-1.22a101.66,101.66,0,0,0-1.34-18.26q-1.34-7.1-4.51-10.73A11.05,11.05,0,0,0,916,25q-8.05,0-11.19,8.11t-3.14,25A107.38,107.38,0,0,0,903,76.85q1.34,7.32,4.51,11.07a11.78,11.78,0,0,0,17.38-.15q3.17-3.9,4.45-11.16A113.7,113.7,0,0,0,930.62,57.58Z"/><path class="cls-5" d="M988.49,94.29V38.79Q973,50.69,967.63,50.69a6.16,6.16,0,0,1-4.54-2,6.58,6.58,0,0,1-2-4.73,5.34,5.34,0,0,1,2-4.57,43.31,43.31,0,0,1,6.89-3.78,51.47,51.47,0,0,0,11.8-7.32,50,50,0,0,0,7.84-8.6Q993,14.89,994,13.79t3.9-1.1a6.25,6.25,0,0,1,5.18,2.5,10.94,10.94,0,0,1,2,6.89V91.91q0,12.26-8.35,12.26a7.66,7.66,0,0,1-6-2.5Q988.49,99.17,988.49,94.29Z"/><path class="cls-5" d="M1062.71,94.29V38.79q-15.49,11.89-20.86,11.89a6.16,6.16,0,0,1-4.54-2,6.58,6.58,0,0,1-2-4.73,5.34,5.34,0,0,1,2-4.57,43.31,43.31,0,0,1,6.89-3.78,51.47,51.47,0,0,0,11.8-7.32,50,50,0,0,0,7.84-8.6q3.41-4.76,4.45-5.85t3.9-1.1a6.25,6.25,0,0,1,5.18,2.5,10.94,10.94,0,0,1,2,6.89V91.91q0,12.26-8.35,12.26a7.66,7.66,0,0,1-6-2.5Q1062.7,99.17,1062.71,94.29Z"/><path class="cls-5" d="M1170,58.8a104.6,104.6,0,0,1-1.22,17.2A40.07,40.07,0,0,1,1164.24,89a30,30,0,0,1-10.73,11.1,29.15,29.15,0,0,1-31.25-1.34,31.91,31.91,0,0,1-11.07-14.51,53.9,53.9,0,0,1-2.78-11.19,93,93,0,0,1-.88-13.26,127.46,127.46,0,0,1,1-16.59,54.8,54.8,0,0,1,3-12.68A28.67,28.67,0,0,1,1122,17.18a28.7,28.7,0,0,1,16.37-4.6,30.55,30.55,0,0,1,11.4,2,26,26,0,0,1,9,6,34.22,34.22,0,0,1,6.56,9.73Q1170,40.38,1170,58.8Zm-16.71-1.22a101.66,101.66,0,0,0-1.34-18.26q-1.34-7.1-4.51-10.73a11.05,11.05,0,0,0-8.78-3.63q-8.05,0-11.19,8.11t-3.14,25a107.38,107.38,0,0,0,1.34,18.78q1.34,7.32,4.51,11.07a11.78,11.78,0,0,0,17.38-.15q3.17-3.9,4.45-11.16A113.7,113.7,0,0,0,1153.27,57.58Z"/><path class="cls-5" d="M1211.14,94.29V38.79q-15.49,11.89-20.86,11.89a6.16,6.16,0,0,1-4.54-2,6.58,6.58,0,0,1-2-4.73,5.34,5.34,0,0,1,2-4.57,43.31,43.31,0,0,1,6.89-3.78,51.47,51.47,0,0,0,11.8-7.32,50,50,0,0,0,7.84-8.6q3.41-4.76,4.45-5.85t3.9-1.1a6.25,6.25,0,0,1,5.18,2.5,10.94,10.94,0,0,1,2,6.89V91.91q0,12.26-8.35,12.26a7.66,7.66,0,0,1-6-2.5Q1211.14,99.17,1211.14,94.29Z"/></svg>