<svg id="Layer_1" data-name="Layer 1" xmlns="http://www.w3.org/2000/svg" viewBox="0 0 200 200"><defs><style>.cls-1{fill:#58595b;}.cls-2{fill:#808285;}.cls-3{fill:#edf8f9;}.cls-4{fill:#0a0e14;}.cls-5{fill:#838d93;}.cls-6{fill:#dae4e5;}.cls-7{fill:#d1d3d4;}.cls-10,.cls-12,.cls-13,.cls-8,.cls-9{fill:#bcbec0;}.cls-8{opacity:0.08;}.cls-9{opacity:0.38;}.cls-10{opacity:0.15;}.cls-11{fill:#939598;}.cls-12{opacity:0.21;}.cls-13{opacity:0.05;}</style></defs><title>FrontEnd</title><path class="cls-1" d="M63.71,136.84a5.45,5.45,0,0,1,.26,1.67v19.55a5.58,5.58,0,0,1-5.62,5.53H-10.4v2.69H59.86a6.79,6.79,0,0,0,6.84-6.74V142.41A6.7,6.7,0,0,0,63.71,136.84Z"/><path class="cls-2" d="M56.89,139.54a5.45,5.45,0,0,1,.26,1.67v19.55a5.58,5.58,0,0,1-5.62,5.53H-10.4V169H53a6.79,6.79,0,0,0,6.84-6.74V145.11A6.7,6.7,0,0,0,56.89,139.54Z"/><rect class="cls-3" x="16.27" y="31.14" width="162.49" height="115.81" rx="1.41" ry="1.41"/><rect class="cls-4" x="21.31" y="35.16" width="152.42" height="95.27" rx="1.34" ry="1.34"/><rect class="cls-5" x="84.21" y="146.95" width="26.9" height="14.09"/><path class="cls-6" d="M122.69,161H72.84a8,8,0,0,0-8.09,8h66A8,8,0,0,0,122.69,161Z"/><rect class="cls-1" x="84.21" y="146.95" width="26.9" height="4.2"/><ellipse class="cls-7" cx="97.76" cy="138.69" rx="2.91" ry="2.87"/><rect class="cls-4" x="21.31" y="35.16" width="152.42" height="95.27" rx="1.34" ry="1.34"/><polygon class="cls-8" points="21.31 104.68 91.9 35.16 60.88 35.16 21.31 74.14 21.31 104.68"/><polygon class="cls-9" points="164.28 130.43 173.72 121.13 173.72 106.87 149.8 130.43 164.28 130.43"/><polygon class="cls-10" points="126.11 130.43 173.72 83.55 173.72 44.7 86.65 130.43 126.11 130.43"/><rect class="cls-3" x="84.21" y="144.73" width="26.9" height="2.22"/><path d="M175.54,31.14a3.19,3.19,0,0,1,3.21,3.16V143.79a3.19,3.19,0,0,1-3.21,3.16H111.1V161h11.59a8,8,0,0,1,8.09,8h-66a8,8,0,0,1,8.09-8H84.21V147H66.71v12.59a6.79,6.79,0,0,1-6.84,6.74H58.51A6.86,6.86,0,0,1,53,169H-10.4v-2.69h0v-2.69H56.36a5.43,5.43,0,0,0,.8-2.83V147H19.48a3.19,3.19,0,0,1-3.21-3.16V34.3a3.19,3.19,0,0,1,3.21-3.16H175.54M59.78,163.4A5.54,5.54,0,0,0,64,158.06V147H59.89v15.29a6.64,6.64,0,0,1-.11,1.16M175.54,29.14H19.48a5.2,5.2,0,0,0-5.21,5.16V143.79A5.2,5.2,0,0,0,19.48,149H55.15v11.81a3.4,3.4,0,0,1-.1.83H-12.4V171H53a8.8,8.8,0,0,0,6.39-2.7h.43a8.9,8.9,0,0,0,3-.5,9.91,9.91,0,0,0-.08,1.23v2h70v-2a10,10,0,0,0-10.09-10H113.1V149h62.44a5.2,5.2,0,0,0,5.21-5.16V34.3a5.2,5.2,0,0,0-5.21-5.16ZM68.71,149h13.5V159H72.84a10.14,10.14,0,0,0-4.14.88q0-.19,0-.38V149Zm-6.82,0H62v9.11a3.43,3.43,0,0,1-.09.77V149Z"/><rect class="cls-11" x="129.08" y="104.99" width="6.02" height="3.8" rx="1.3" ry="1.3" transform="translate(238.97 -25.2) rotate(90)"/><rect class="cls-3" x="130.98" y="92.41" width="58.63" height="79.68" rx="11.19" ry="11.19"/><rect class="cls-11" x="157.24" y="93.78" width="6.11" height="1.35" rx="0.65" ry="0.65" transform="translate(320.58 188.91) rotate(-180)"/><rect class="cls-4" x="134.87" y="96.55" width="50.85" height="64.05" rx="3.34" ry="3.34"/><ellipse class="cls-7" cx="160.29" cy="166.09" rx="2.56" ry="2.52"/><polygon class="cls-12" points="134.87 116.22 154.85 96.55 143.35 96.55 134.87 104.91 134.87 116.22"/><rect class="cls-11" x="129.08" y="104.99" width="6.02" height="3.8" rx="1.3" ry="1.3" transform="translate(238.97 -25.2) rotate(90)"/><rect class="cls-3" x="130.98" y="92.41" width="58.63" height="79.68" rx="3.94" ry="3.94"/><rect class="cls-11" x="157.24" y="93.78" width="6.11" height="1.35" rx="0.65" ry="0.65" transform="translate(320.58 188.91) rotate(-180)"/><rect class="cls-4" x="134.87" y="96.55" width="50.85" height="64.05" rx="3.34" ry="3.34"/><ellipse class="cls-7" cx="160.29" cy="166.09" rx="2.56" ry="2.52"/><polygon class="cls-12" points="134.87 116.22 154.85 96.55 143.35 96.55 134.87 104.91 134.87 116.22"/><path d="M183.92,92.41A5.64,5.64,0,0,1,189.6,98V166.5a5.64,5.64,0,0,1-5.68,5.59H136.66A5.64,5.64,0,0,1,131,166.5V109.89h-.13a.66.66,0,0,1-.66-.65v-4.71a.66.66,0,0,1,.66-.65H131V98a5.64,5.64,0,0,1,5.68-5.59h47.26m0-2H136.66A7.65,7.65,0,0,0,129,98v4.63a2.64,2.64,0,0,0-.79,1.89v4.71a2.64,2.64,0,0,0,.79,1.89V166.5a7.65,7.65,0,0,0,7.68,7.59h47.26a7.65,7.65,0,0,0,7.68-7.59V98a7.65,7.65,0,0,0-7.68-7.59Z"/><polygon class="cls-8" points="169.19 160.59 185.72 144.32 185.72 121.69 146.2 160.59 169.19 160.59"/><polygon class="cls-8" points="169.19 160.59 185.72 144.32 185.72 121.69 146.2 160.59 169.19 160.59"/><rect class="cls-11" x="27.06" y="128.85" width="4.74" height="2.56" rx="1.21" ry="1.21" transform="translate(-100.69 159.56) rotate(-90)"/><rect class="cls-11" x="27.06" y="135.46" width="4.74" height="2.56" rx="1.21" ry="1.21" transform="translate(-107.3 166.17) rotate(-90)"/><rect class="cls-2" x="35.03" y="119.68" width="5.89" height="2.52" rx="1.21" ry="1.21"/><rect class="cls-3" x="29.23" y="120.6" width="35.25" height="58.14" rx="11.19" ry="11.19"/><rect class="cls-4" x="31.56" y="123.62" width="30.58" height="46.73" rx="3.34" ry="3.34"/><ellipse class="cls-7" cx="46.85" cy="173.89" rx="2.02" ry="1.99"/><rect class="cls-11" x="27.06" y="128.85" width="4.74" height="2.56" rx="1.21" ry="1.21" transform="translate(-100.69 159.56) rotate(-90)"/><rect class="cls-11" x="27.06" y="135.46" width="4.74" height="2.56" rx="1.21" ry="1.21" transform="translate(-107.3 166.17) rotate(-90)"/><rect class="cls-2" x="35.03" y="119.68" width="5.89" height="2.52" rx="1.21" ry="1.21"/><rect class="cls-3" x="29.23" y="120.6" width="35.25" height="58.14" rx="11.19" ry="11.19"/><rect class="cls-4" x="31.56" y="123.62" width="30.58" height="46.73" rx="3.34" ry="3.34"/><ellipse class="cls-7" cx="46.85" cy="173.89" rx="2.02" ry="1.99"/><polygon class="cls-13" points="31.56 137.88 46.07 123.6 37.73 123.6 31.56 129.67 31.56 137.88"/><rect class="cls-11" x="27.06" y="128.85" width="4.74" height="2.56" rx="1.21" ry="1.21" transform="translate(-100.69 159.56) rotate(-90)"/><rect class="cls-11" x="27.06" y="135.46" width="4.74" height="2.56" rx="1.21" ry="1.21" transform="translate(-107.3 166.17) rotate(-90)"/><rect class="cls-2" x="35.03" y="119.68" width="5.89" height="2.52" rx="1.21" ry="1.21"/><rect class="cls-3" x="29.23" y="120.6" width="35.25" height="58.14" rx="11.19" ry="11.19"/><rect class="cls-4" x="31.56" y="123.62" width="30.58" height="46.73" rx="3.34" ry="3.34"/><ellipse class="cls-7" cx="46.85" cy="173.89" rx="2.02" ry="1.99"/><rect class="cls-11" x="27.06" y="128.85" width="4.74" height="2.56" rx="1.21" ry="1.21" transform="translate(-100.69 159.56) rotate(-90)"/><rect class="cls-11" x="27.06" y="135.46" width="4.74" height="2.56" rx="1.21" ry="1.21" transform="translate(-107.3 166.17) rotate(-90)"/><rect class="cls-2" x="35.03" y="119.68" width="5.89" height="2.52" rx="1.21" ry="1.21"/><rect class="cls-3" x="29.23" y="120.6" width="35.25" height="58.14" rx="1.4" ry="1.4"/><rect class="cls-4" x="31.56" y="123.62" width="30.58" height="46.73" rx="3.34" ry="3.34"/><ellipse class="cls-7" cx="46.85" cy="173.89" rx="2.02" ry="1.99"/><polygon class="cls-13" points="31.56 137.88 46.07 123.6 37.73 123.6 31.56 129.67 31.56 137.88"/><path d="M40.05,119.68a.86.86,0,0,1,.87.85v.07H60A4.44,4.44,0,0,1,64.48,125v49.32A4.44,4.44,0,0,1,60,178.74H33.7a4.44,4.44,0,0,1-4.48-4.41V139.11H29a.86.86,0,0,1-.87-.85v-3a.86.86,0,0,1,.87-.85h.2V132.5H29a.86.86,0,0,1-.87-.85v-3a.86.86,0,0,1,.87-.85h.2V125a4.44,4.44,0,0,1,4.48-4.41H35v-.07a.86.86,0,0,1,.87-.85h4.15m0-2H35.9a2.87,2.87,0,0,0-2.11.93H33.7A6.45,6.45,0,0,0,27.23,125v1.38a2.85,2.85,0,0,0-1.07,2.22v3a2.83,2.83,0,0,0,.63,1.79,2.83,2.83,0,0,0-.63,1.79v3a2.85,2.85,0,0,0,1.07,2.22v33.86a6.45,6.45,0,0,0,6.48,6.41H60a6.45,6.45,0,0,0,6.48-6.41V125A6.45,6.45,0,0,0,60,118.6H42.17a2.87,2.87,0,0,0-2.11-.93Z"/><polygon class="cls-8" points="52.03 170.35 62.14 160.4 62.14 146.56 37.98 170.35 52.03 170.35"/><polygon class="cls-13" points="62.14 151.33 62.14 142.22 33.56 170.35 42.82 170.35 62.14 151.33"/><polygon class="cls-8" points="52.03 170.35 62.14 160.4 62.14 146.56 37.98 170.35 52.03 170.35"/><polygon class="cls-13" points="62.14 151.33 62.14 142.22 33.56 170.35 42.82 170.35 62.14 151.33"/></svg>