<svg id="Layer_8" data-name="Layer 8" xmlns="http://www.w3.org/2000/svg" viewBox="0 0 2000 1500"><defs><style>.cls-1,.cls-12,.cls-4,.cls-7,.cls-9{fill:#838d93;}.cls-10,.cls-13,.cls-2,.cls-5{fill:#edf8f9;}.cls-11,.cls-2{opacity:0.17;}.cls-11,.cls-3,.cls-6,.cls-8{fill:#dae4e5;}.cls-12,.cls-3,.cls-5{opacity:0.63;}.cls-4,.cls-6{opacity:0.39;}.cls-10,.cls-7{opacity:0.37;}.cls-8,.cls-9{opacity:0.87;}.cls-13{opacity:0.73;}</style></defs><title>GearBackground</title><path class="cls-1" d="M120.28-38.51,84.56-2.8A221.8,221.8,0,0,0,3.7-36.22V-86.8a24.69,24.69,0,0,0-24.61-24.61H-58.54A24.69,24.69,0,0,0-83.15-86.8v50.69A221.78,221.78,0,0,0-163.79-2.58l-35.94-35.94a24.69,24.69,0,0,0-34.81,0L-261.15-11.9a24.69,24.69,0,0,0,0,34.81l36,36a221.8,221.8,0,0,0-33.2,80.53h-51.13A24.69,24.69,0,0,0-334,164.09v37.63a24.69,24.69,0,0,0,24.61,24.61h51.24a221.78,221.78,0,0,0,33.31,80.31l-36.26,36.26a24.69,24.69,0,0,0,0,34.81l26.61,26.61a24.69,24.69,0,0,0,34.81,0l36.26-36.26a221.78,221.78,0,0,0,80.31,33.31v51.24a24.69,24.69,0,0,0,24.61,24.61h37.63A24.69,24.69,0,0,0,3.7,452.62V401.49a221.8,221.8,0,0,0,80.53-33.2l36,36a24.69,24.69,0,0,0,34.81,0l26.61-26.61a24.69,24.69,0,0,0,0-34.81L145.76,307a221.78,221.78,0,0,0,33.53-80.64H230a24.69,24.69,0,0,0,24.61-24.61V164.09A24.69,24.69,0,0,0,230,139.48H179.4A221.8,221.8,0,0,0,146,58.62L181.7,22.91a24.69,24.69,0,0,0,0-34.81L155.09-38.51A24.69,24.69,0,0,0,120.28-38.51ZM63.61,285.69a145.74,145.74,0,0,1-206.11,0,145.74,145.74,0,0,1,0-206.11,145.74,145.74,0,0,1,206.11,0A145.74,145.74,0,0,1,63.61,285.69Z"/><path class="cls-2" d="M531.55-307.17l-33.08,33.08a205.43,205.43,0,0,0-74.89-31v-46.85a22.87,22.87,0,0,0-22.8-22.8H365.93a22.87,22.87,0,0,0-22.8,22.8v47a205.42,205.42,0,0,0-74.69,31.06l-33.29-33.29a22.87,22.87,0,0,0-32.24,0l-24.65,24.65a22.87,22.87,0,0,0,0,32.24l33.38,33.38a205.44,205.44,0,0,0-30.75,74.59H133.54a22.87,22.87,0,0,0-22.8,22.8v34.85a22.87,22.87,0,0,0,22.8,22.8H181a205.42,205.42,0,0,0,30.85,74.38L178.27,46.12a22.87,22.87,0,0,0,0,32.24L202.91,103a22.87,22.87,0,0,0,32.24,0l33.59-33.59a205.42,205.42,0,0,0,74.38,30.85v47.46a22.87,22.87,0,0,0,22.8,22.8h34.85a22.87,22.87,0,0,0,22.8-22.8V100.37a205.44,205.44,0,0,0,74.59-30.75L531.55,103a22.87,22.87,0,0,0,32.24,0l24.65-24.65a22.87,22.87,0,0,0,0-32.24L555.15,12.83a205.42,205.42,0,0,0,31.06-74.69h47A22.87,22.87,0,0,0,656-84.66v-34.85a22.87,22.87,0,0,0-22.8-22.8H586.32a205.43,205.43,0,0,0-31-74.89l33.08-33.08a22.87,22.87,0,0,0,0-32.24l-24.65-24.65A22.87,22.87,0,0,0,531.55-307.17ZM479.06-6.88a135,135,0,0,1-190.91,0,135,135,0,0,1,0-190.91,135,135,0,0,1,190.91,0A135,135,0,0,1,479.06-6.88Z"/><path class="cls-3" d="M598.55,180.93l-29,29a180.3,180.3,0,0,0-65.73-27.17V141.67a20.07,20.07,0,0,0-20-20H453.18a20.07,20.07,0,0,0-20,20v41.21a180.29,180.29,0,0,0-65.55,27.26l-29.21-29.21a20.07,20.07,0,0,0-28.3,0l-21.63,21.63a20.07,20.07,0,0,0,0,28.3l29.3,29.3a180.31,180.31,0,0,0-27,65.47H249.23a20.07,20.07,0,0,0-20,20v30.59a20.07,20.07,0,0,0,20,20h41.66A180.29,180.29,0,0,0,318,461.51L288.48,491a20.07,20.07,0,0,0,0,28.3l21.63,21.63a20.07,20.07,0,0,0,28.3,0l29.48-29.48a180.29,180.29,0,0,0,65.29,27.08v41.66a20.07,20.07,0,0,0,20,20h30.59a20.07,20.07,0,0,0,20-20V538.61a180.31,180.31,0,0,0,65.47-27l29.3,29.3a20.07,20.07,0,0,0,28.3,0l21.63-21.63a20.07,20.07,0,0,0,0-28.3l-29.21-29.21a180.29,180.29,0,0,0,27.26-65.55h41.21a20.07,20.07,0,0,0,20-20V345.63a20.07,20.07,0,0,0-20-20H646.61a180.3,180.3,0,0,0-27.17-65.73l29-29a20.07,20.07,0,0,0,0-28.3l-21.63-21.63A20.07,20.07,0,0,0,598.55,180.93ZM552.48,444.48a118.48,118.48,0,1,1,0-167.55A118.48,118.48,0,0,1,552.48,444.48Z"/><path class="cls-4" d="M1191.17,447l-20.27-20.27a125.91,125.91,0,0,0,19-45.9h28.71a14,14,0,0,0,14-14V345.52a14,14,0,0,0-14-14H1189.8a125.9,125.9,0,0,0-19-45.78l20.4-20.4a14,14,0,0,0,0-19.76l-15.1-15.1a14,14,0,0,0-19.76,0L1135.84,251a125.91,125.91,0,0,0-45.72-18.85v-29a14,14,0,0,0-14-14h-21.36a14,14,0,0,0-14,14v29.09a125.9,125.9,0,0,0-45.59,18.91l-20.59-20.59a14,14,0,0,0-19.76,0l-15.1,15.1a14,14,0,0,0,0,19.76L960.37,286a125.9,125.9,0,0,0-18.91,45.59H912.37a14,14,0,0,0-14,14v21.36a14,14,0,0,0,14,14h29a125.91,125.91,0,0,0,18.85,45.72L939.78,447a14,14,0,0,0,0,19.76l15.1,15.1a14,14,0,0,0,19.76,0L995,461.5a125.9,125.9,0,0,0,45.78,19v28.78a14,14,0,0,0,14,14h21.36a14,14,0,0,0,14-14V480.6a125.91,125.91,0,0,0,45.9-19l20.27,20.27a14,14,0,0,0,19.76,0l15.1-15.1A14,14,0,0,0,1191.17,447Zm-184-32.17a82.73,82.73,0,1,1,117,0A82.73,82.73,0,0,1,1007.13,414.86Z"/><path class="cls-5" d="M1343.68,680.5l-18.78-18.78a116.62,116.62,0,0,0,17.57-42.51h26.59A13,13,0,0,0,1382,606.27V586.48a13,13,0,0,0-12.94-12.94h-26.65a116.61,116.61,0,0,0-17.63-42.4l18.9-18.9a13,13,0,0,0,0-18.3l-14-14a13,13,0,0,0-18.3,0l-19,19a116.62,116.62,0,0,0-42.34-17.46V454.56a13,13,0,0,0-12.94-12.94h-19.79a13,13,0,0,0-12.94,12.94v26.94A116.61,116.61,0,0,0,1162.2,499L1143.13,480a13,13,0,0,0-18.3,0l-14,14a13,13,0,0,0,0,18.3l19.07,19.07a116.61,116.61,0,0,0-17.51,42.23h-26.94a13,13,0,0,0-12.94,12.94v19.79a13,13,0,0,0,12.94,12.94h26.88a116.62,116.62,0,0,0,17.46,42.34l-19,19a13,13,0,0,0,0,18.3l14,14a13,13,0,0,0,18.3,0l18.9-18.9a116.61,116.61,0,0,0,42.4,17.63v26.65a13,13,0,0,0,12.94,12.94h19.79a13,13,0,0,0,12.94-12.94V711.59A116.62,116.62,0,0,0,1292.61,694l18.78,18.78a13,13,0,0,0,18.3,0l14-14A13,13,0,0,0,1343.68,680.5Zm-170.46-29.8a76.63,76.63,0,1,1,108.37,0A76.63,76.63,0,0,1,1173.21,650.7Z"/><path class="cls-6" d="M1066.6,718.53,1050.12,702a102.35,102.35,0,0,0,15.42-37.31h23.34a11.39,11.39,0,0,0,11.36-11.36V636a11.39,11.39,0,0,0-11.36-11.36h-23.39A102.34,102.34,0,0,0,1050,587.44l16.58-16.58a11.39,11.39,0,0,0,0-16.06l-12.28-12.28a11.39,11.39,0,0,0-16.06,0l-16.63,16.63a102.35,102.35,0,0,0-37.16-15.32V520.23a11.39,11.39,0,0,0-11.36-11.36H955.74a11.39,11.39,0,0,0-11.36,11.36v23.65a102.35,102.35,0,0,0-37.06,15.37l-16.73-16.73a11.39,11.39,0,0,0-16.06,0l-12.28,12.28a11.39,11.39,0,0,0,0,16.06L879,587.59a102.35,102.35,0,0,0-15.37,37.06H840A11.39,11.39,0,0,0,828.6,636v17.37A11.39,11.39,0,0,0,840,664.74h23.59a102.36,102.36,0,0,0,15.32,37.16l-16.63,16.63a11.39,11.39,0,0,0,0,16.06l12.28,12.28a11.39,11.39,0,0,0,16.06,0l16.58-16.58a102.34,102.34,0,0,0,37.21,15.47v23.39a11.39,11.39,0,0,0,11.36,11.36H973.1a11.39,11.39,0,0,0,11.36-11.36V745.82a102.35,102.35,0,0,0,37.31-15.42l16.48,16.48a11.39,11.39,0,0,0,16.06,0l12.28-12.28A11.39,11.39,0,0,0,1066.6,718.53ZM917,692.38a67.26,67.26,0,1,1,95.12,0A67.26,67.26,0,0,1,917,692.38Z"/><path class="cls-7" d="M539.53,1246.08v-44.42a195.08,195.08,0,0,0,71.07-29.5l31.46,31.46a21.71,21.71,0,0,0,30.62,0l23.4-23.4a21.71,21.71,0,0,0,0-30.62l-31.53-31.53a195.06,195.06,0,0,0,29.3-71h44.7a21.71,21.71,0,0,0,21.65-21.65v-33.1a21.71,21.71,0,0,0-21.65-21.65H693.72a195.08,195.08,0,0,0-29.44-70.73l31.8-31.8a21.71,21.71,0,0,0,0-30.62l-23.4-23.4a21.71,21.71,0,0,0-30.62,0L610.2,846a195.07,195.07,0,0,0-70.66-29.23V771.65A21.71,21.71,0,0,0,517.89,750h-33.1a21.71,21.71,0,0,0-21.65,21.65v45.11A195.07,195.07,0,0,0,392.48,846l-31.87-31.87a21.71,21.71,0,0,0-30.62,0l-23.4,23.4a21.71,21.71,0,0,0,0,30.62l31.8,31.8A195.08,195.08,0,0,0,309,970.67H264.12a21.71,21.71,0,0,0-21.65,21.65v33.1a21.71,21.71,0,0,0,21.65,21.65h44.7a195.06,195.06,0,0,0,29.3,71l-31.53,31.53a21.71,21.71,0,0,0,0,30.62l23.4,23.4a21.71,21.71,0,0,0,30.62,0l31.46-31.46a195.08,195.08,0,0,0,71.07,29.5v44.42a21.71,21.71,0,0,0,21.65,21.65h33.1A21.71,21.71,0,0,0,539.53,1246.08ZM373.15,1009.21a128.19,128.19,0,1,1,128.19,128.19A128.19,128.19,0,0,1,373.15,1009.21Z"/><path class="cls-5" d="M450.84,1668.95V1627.8a180.69,180.69,0,0,0,65.83-27.33l29.14,29.14a20.11,20.11,0,0,0,28.36,0l21.68-21.68a20.11,20.11,0,0,0,0-28.36l-29.2-29.2a180.67,180.67,0,0,0,27.14-65.76h41.4a20.11,20.11,0,0,0,20.05-20.05V1433.9a20.11,20.11,0,0,0-20.05-20.05H593.65a180.69,180.69,0,0,0-27.26-65.51l29.45-29.45a20.11,20.11,0,0,0,0-28.36l-21.68-21.68a20.11,20.11,0,0,0-28.36,0l-29.52,29.52a180.67,180.67,0,0,0-65.45-27.07v-41.78a20.11,20.11,0,0,0-20.05-20.05H400.13a20.11,20.11,0,0,0-20.05,20.05v41.78a180.67,180.67,0,0,0-65.45,27.07l-29.52-29.52a20.11,20.11,0,0,0-28.36,0l-21.68,21.68a20.11,20.11,0,0,0,0,28.36l29.45,29.45a180.69,180.69,0,0,0-27.26,65.51H195.74a20.11,20.11,0,0,0-20.05,20.05v30.65a20.11,20.11,0,0,0,20.05,20.05h41.4a180.67,180.67,0,0,0,27.14,65.76l-29.2,29.2a20.11,20.11,0,0,0,0,28.36l21.68,21.68a20.11,20.11,0,0,0,28.36,0l29.14-29.14a180.69,180.69,0,0,0,65.83,27.33v41.15A20.11,20.11,0,0,0,400.13,1689h30.65A20.11,20.11,0,0,0,450.84,1668.95Zm-154.11-219.4a118.73,118.73,0,1,1,118.73,118.73A118.73,118.73,0,0,1,296.73,1449.55Z"/><path class="cls-8" d="M105.61,1407.05v-36.11a158.58,158.58,0,0,0,57.78-24L189,1372.53a17.65,17.65,0,0,0,24.89,0l19-19a17.65,17.65,0,0,0,0-24.89L207.25,1303a158.57,158.57,0,0,0,23.82-57.72H267.4a17.65,17.65,0,0,0,17.6-17.6v-26.9a17.65,17.65,0,0,0-17.6-17.6H231a158.59,158.59,0,0,0-23.93-57.5l25.85-25.85a17.65,17.65,0,0,0,0-24.89l-19-19a17.65,17.65,0,0,0-24.89,0l-25.91,25.91A158.57,158.57,0,0,0,105.61,1058v-36.67a17.65,17.65,0,0,0-17.6-17.6H61.11a17.65,17.65,0,0,0-17.6,17.6V1058a158.57,158.57,0,0,0-57.44,23.76l-25.91-25.91a17.65,17.65,0,0,0-24.89,0l-19,19a17.65,17.65,0,0,0,0,24.89l25.85,25.85a158.59,158.59,0,0,0-23.93,57.5h-36.44a17.65,17.65,0,0,0-17.6,17.6v26.9a17.65,17.65,0,0,0,17.6,17.6h36.34A158.57,158.57,0,0,0-58.12,1303l-25.63,25.63a17.65,17.65,0,0,0,0,24.89l19,19a17.65,17.65,0,0,0,24.89,0L-14.27,1347a158.58,158.58,0,0,0,57.78,24v36.11a17.65,17.65,0,0,0,17.6,17.6H88A17.65,17.65,0,0,0,105.61,1407.05ZM-29.64,1214.49A104.21,104.21,0,1,1,74.56,1318.7,104.21,104.21,0,0,1-29.64,1214.49Z"/><path class="cls-9" d="M1266.89,1414.26l22.46-22.46a139.47,139.47,0,0,0,50.85,21v31.81a15.52,15.52,0,0,0,15.48,15.48h23.66a15.52,15.52,0,0,0,15.48-15.48v-31.88a139.46,139.46,0,0,0,50.71-21.08l22.6,22.6a15.52,15.52,0,0,0,21.89,0l16.73-16.73a15.52,15.52,0,0,0,0-21.89L1484.07,1353a139.47,139.47,0,0,0,20.88-50.64h32.15a15.52,15.52,0,0,0,15.48-15.48V1263.2a15.52,15.52,0,0,0-15.48-15.48h-32.22a139.46,139.46,0,0,0-20.94-50.5l22.8-22.8a15.52,15.52,0,0,0,0-21.89L1490,1135.8a15.52,15.52,0,0,0-21.89,0l-22.8,22.8a139.46,139.46,0,0,0-50.5-20.94v-32.22a15.52,15.52,0,0,0-15.48-15.48h-23.66a15.52,15.52,0,0,0-15.48,15.48v32.15a139.47,139.47,0,0,0-50.64,20.88l-22.66-22.66a15.52,15.52,0,0,0-21.89,0l-16.73,16.73a15.52,15.52,0,0,0,0,21.89l22.6,22.6a139.46,139.46,0,0,0-21.08,50.71H1197.9a15.52,15.52,0,0,0-15.48,15.48v23.66a15.52,15.52,0,0,0,15.48,15.48h31.81a139.47,139.47,0,0,0,21,50.85l-22.46,22.46a15.52,15.52,0,0,0,0,21.89l16.73,16.73A15.52,15.52,0,0,0,1266.89,1414.26Zm35.64-203.86a91.65,91.65,0,1,1,0,129.61A91.65,91.65,0,0,1,1302.52,1210.4Z"/><path class="cls-10" d="M1008.27,1583.2l20.8-20.8a129.18,129.18,0,0,0,47.09,19.47v29.46a14.38,14.38,0,0,0,14.34,14.34h21.92a14.38,14.38,0,0,0,14.34-14.34V1581.8a129.17,129.17,0,0,0,47-19.53l20.93,20.93a14.38,14.38,0,0,0,20.27,0l15.5-15.5a14.38,14.38,0,0,0,0-20.27l-21-21a129.18,129.18,0,0,0,19.34-46.9h29.78a14.38,14.38,0,0,0,14.34-14.34v-21.92a14.38,14.38,0,0,0-14.34-14.34H1228.7a129.17,129.17,0,0,0-19.4-46.77l21.12-21.12a14.38,14.38,0,0,0,0-20.27l-15.5-15.5a14.38,14.38,0,0,0-20.27,0l-21.12,21.12a129.17,129.17,0,0,0-46.77-19.4v-29.84a14.38,14.38,0,0,0-14.34-14.34H1090.5a14.38,14.38,0,0,0-14.34,14.34v29.78a129.18,129.18,0,0,0-46.9,19.34l-21-21a14.38,14.38,0,0,0-20.27,0l-15.5,15.5a14.38,14.38,0,0,0,0,20.27L993.43,1382a129.17,129.17,0,0,0-19.53,47H944.38A14.38,14.38,0,0,0,930,1443.28v21.92a14.38,14.38,0,0,0,14.34,14.34h29.46a129.18,129.18,0,0,0,19.47,47.09l-20.8,20.8a14.38,14.38,0,0,0,0,20.27l15.5,15.5A14.38,14.38,0,0,0,1008.27,1583.2Zm33-188.82a84.88,84.88,0,1,1,0,120A84.88,84.88,0,0,1,1041.28,1394.37Z"/><path class="cls-11" d="M966.14,1276.28,984.4,1258a113.38,113.38,0,0,0,41.33,17.08V1301a12.62,12.62,0,0,0,12.58,12.58h19.24a12.62,12.62,0,0,0,12.58-12.58V1275a113.37,113.37,0,0,0,41.22-17.14l18.37,18.37a12.62,12.62,0,0,0,17.79,0l13.6-13.6a12.62,12.62,0,0,0,0-17.79l-18.42-18.42a113.38,113.38,0,0,0,17-41.17h26.14a12.62,12.62,0,0,0,12.58-12.58v-19.24a12.62,12.62,0,0,0-12.58-12.58h-26.19a113.37,113.37,0,0,0-17-41.05l18.54-18.54a12.62,12.62,0,0,0,0-17.79l-13.6-13.6a12.62,12.62,0,0,0-17.79,0l-18.54,18.54a113.37,113.37,0,0,0-41.05-17v-26.19a12.62,12.62,0,0,0-12.58-12.58h-19.24a12.62,12.62,0,0,0-12.58,12.58v26.14a113.38,113.38,0,0,0-41.17,17l-18.42-18.42a12.62,12.62,0,0,0-17.79,0l-13.6,13.6a12.62,12.62,0,0,0,0,17.79l18.37,18.37A113.37,113.37,0,0,0,936,1140.89H910.06a12.62,12.62,0,0,0-12.58,12.58v19.24a12.62,12.62,0,0,0,12.58,12.58h25.85A113.38,113.38,0,0,0,953,1226.62l-18.26,18.26a12.62,12.62,0,0,0,0,17.79l13.6,13.6A12.62,12.62,0,0,0,966.14,1276.28Zm29-165.73a74.5,74.5,0,1,1,0,105.36A74.5,74.5,0,0,1,995.11,1110.55Z"/><path class="cls-9" d="M1752.74,1006.29h37a162.57,162.57,0,0,0,24.59,59.23l-26.21,26.21a18.09,18.09,0,0,0,0,25.51l19.5,19.5a18.09,18.09,0,0,0,25.51,0l26.27-26.27a162.55,162.55,0,0,0,59.17,24.41v37.25a18.09,18.09,0,0,0,18,18h27.58a18.09,18.09,0,0,0,18-18v-37.36a162.57,162.57,0,0,0,58.94-24.53l26.5,26.5a18.09,18.09,0,0,0,25.51,0l19.5-19.5a18.09,18.09,0,0,0,0-25.51l-26.56-26.56a162.56,162.56,0,0,0,24.36-58.88h37.59a18.09,18.09,0,0,0,18-18V960.67a18.09,18.09,0,0,0-18-18h-37.59a162.56,162.56,0,0,0-24.36-58.88l26.56-26.56a18.09,18.09,0,0,0,0-25.51l-19.5-19.5a18.09,18.09,0,0,0-25.51,0l-26.5,26.5a162.57,162.57,0,0,0-58.94-24.53V776.78a18.09,18.09,0,0,0-18-18h-27.58a18.09,18.09,0,0,0-18,18V814a162.55,162.55,0,0,0-59.17,24.41l-26.27-26.27a18.09,18.09,0,0,0-25.51,0l-19.5,19.5a18.09,18.09,0,0,0,0,25.51l26.21,26.21a162.57,162.57,0,0,0-24.59,59.23h-37a18.09,18.09,0,0,0-18,18v27.58A18.09,18.09,0,0,0,1752.74,1006.29Zm197.4-138.65a106.82,106.82,0,1,1-106.82,106.82A106.82,106.82,0,0,1,1950.13,867.64Z"/><path class="cls-5" d="M1400.35,932.38h34.29a150.57,150.57,0,0,0,22.77,54.86l-24.28,24.28a16.76,16.76,0,0,0,0,23.63l18.06,18.06a16.76,16.76,0,0,0,23.63,0l24.33-24.33a150.56,150.56,0,0,0,54.8,22.61V1086a16.76,16.76,0,0,0,16.71,16.71h25.55a16.76,16.76,0,0,0,16.71-16.71v-34.6a150.57,150.57,0,0,0,54.59-22.72l24.54,24.54a16.76,16.76,0,0,0,23.63,0l18.06-18.06a16.76,16.76,0,0,0,0-23.63l-24.6-24.6a150.56,150.56,0,0,0,22.56-54.54h34.82a16.76,16.76,0,0,0,16.71-16.71V890.12a16.76,16.76,0,0,0-16.71-16.71h-34.82a150.56,150.56,0,0,0-22.56-54.54l24.6-24.6a16.76,16.76,0,0,0,0-23.63l-18.06-18.06a16.76,16.76,0,0,0-23.63,0l-24.54,24.54a150.58,150.58,0,0,0-54.59-22.72V719.8a16.76,16.76,0,0,0-16.71-16.71h-25.55A16.76,16.76,0,0,0,1554,719.8v34.5a150.56,150.56,0,0,0-54.8,22.61l-24.33-24.33a16.76,16.76,0,0,0-23.63,0l-18.06,18.06a16.76,16.76,0,0,0,0,23.63l24.28,24.28a150.57,150.57,0,0,0-22.77,54.86h-34.29a16.76,16.76,0,0,0-16.71,16.71v25.55A16.76,16.76,0,0,0,1400.35,932.38ZM1583.18,804a98.94,98.94,0,1,1-98.94,98.94A98.94,98.94,0,0,1,1583.18,804Z"/><path class="cls-3" d="M1618.59,644.69h30.09a132.15,132.15,0,0,0,20,48.15l-21.31,21.31a14.71,14.71,0,0,0,0,20.74l15.85,15.85a14.71,14.71,0,0,0,20.74,0l21.36-21.36a132.14,132.14,0,0,0,48.1,19.85v30.28a14.71,14.71,0,0,0,14.67,14.67h22.42a14.71,14.71,0,0,0,14.67-14.67V749.14a132.15,132.15,0,0,0,47.92-19.94l21.54,21.54a14.71,14.71,0,0,0,20.74,0l15.85-15.85a14.71,14.71,0,0,0,0-20.74l-21.59-21.59a132.14,132.14,0,0,0,19.8-47.87H1940A14.71,14.71,0,0,0,1954.66,630V607.6A14.71,14.71,0,0,0,1940,592.94h-30.56a132.14,132.14,0,0,0-19.8-47.87l21.59-21.59a14.71,14.71,0,0,0,0-20.74l-15.85-15.85a14.71,14.71,0,0,0-20.74,0l-21.54,21.54a132.16,132.16,0,0,0-47.92-19.94V458.12a14.71,14.71,0,0,0-14.67-14.67h-22.42a14.71,14.71,0,0,0-14.67,14.67V488.4a132.14,132.14,0,0,0-48.1,19.85L1684,486.89a14.71,14.71,0,0,0-20.74,0l-15.85,15.85a14.71,14.71,0,0,0,0,20.74l21.31,21.31a132.15,132.15,0,0,0-20,48.15h-30.09a14.71,14.71,0,0,0-14.67,14.67V630A14.71,14.71,0,0,0,1618.59,644.69ZM1779.06,532a86.84,86.84,0,1,1-86.84,86.84A86.84,86.84,0,0,1,1779.06,532Z"/><path class="cls-12" d="M1844.27-58.44,1817.51-85.2a166.22,166.22,0,0,0,25-60.6h37.91a18.5,18.5,0,0,0,18.45-18.45v-28.2a18.5,18.5,0,0,0-18.45-18.45h-38a166.21,166.21,0,0,0-25.13-60.43l26.93-26.93a18.5,18.5,0,0,0,0-26.09l-19.94-19.94a18.5,18.5,0,0,0-26.09,0l-27,27a166.22,166.22,0,0,0-60.35-24.88v-38.32a18.5,18.5,0,0,0-18.45-18.45h-28.2a18.5,18.5,0,0,0-18.45,18.45v38.4a166.21,166.21,0,0,0-60.19,25l-27.18-27.18a18.5,18.5,0,0,0-26.09,0l-19.94,19.94a18.5,18.5,0,0,0,0,26.09l27.18,27.18a166.21,166.21,0,0,0-25,60.19h-38.4a18.5,18.5,0,0,0-18.45,18.45v28.2a18.5,18.5,0,0,0,18.45,18.45h38.32a166.23,166.23,0,0,0,24.88,60.35l-27,27a18.5,18.5,0,0,0,0,26.09l19.94,19.94a18.5,18.5,0,0,0,26.09,0l26.93-26.93a166.21,166.21,0,0,0,60.43,25.13v38a18.5,18.5,0,0,0,18.45,18.45h28.2a18.5,18.5,0,0,0,18.45-18.45V-14.13a166.22,166.22,0,0,0,60.6-25l26.77,26.77a18.5,18.5,0,0,0,26.09,0l19.94-19.94A18.5,18.5,0,0,0,1844.27-58.44Zm-243-42.47a109.22,109.22,0,0,1,0-154.47,109.22,109.22,0,0,1,154.47,0,109.22,109.22,0,0,1,0,154.47A109.22,109.22,0,0,1,1601.3-100.91Z"/><path class="cls-13" d="M2045.61,249.78,2020.82,225a154,154,0,0,0,23.2-56.13h35.11a17.14,17.14,0,0,0,17.09-17.09V125.66a17.14,17.14,0,0,0-17.09-17.09h-35.19a153.94,153.94,0,0,0-23.27-56l24.94-24.94a17.14,17.14,0,0,0,0-24.16L2027.14-15A17.14,17.14,0,0,0,2003-15l-25,25a154,154,0,0,0-55.9-23V-48.49A17.14,17.14,0,0,0,1905-65.58h-26.12a17.14,17.14,0,0,0-17.09,17.09v35.57A154,154,0,0,0,1806,10.2L1780.85-15a17.14,17.14,0,0,0-24.16,0L1738.22,3.49a17.14,17.14,0,0,0,0,24.16l25.17,25.17a154,154,0,0,0-23.12,55.75H1704.7a17.14,17.14,0,0,0-17.09,17.09v26.12a17.14,17.14,0,0,0,17.09,17.09h35.49a154,154,0,0,0,23,55.9l-25,25a17.14,17.14,0,0,0,0,24.16l18.47,18.47a17.14,17.14,0,0,0,24.16,0l24.94-24.94a153.94,153.94,0,0,0,56,23.27v35.19A17.14,17.14,0,0,0,1878.85,343H1905a17.14,17.14,0,0,0,17.09-17.09V290.82a154,154,0,0,0,56.13-23.2L2003,292.42a17.14,17.14,0,0,0,24.16,0l18.47-18.47A17.14,17.14,0,0,0,2045.61,249.78Zm-225-39.34a101.17,101.17,0,1,1,143.07,0A101.17,101.17,0,0,1,1820.57,210.45Z"/><path class="cls-11" d="M1679.82,300l-21.76-21.76A135.12,135.12,0,0,0,1678.42,229h30.81a15,15,0,0,0,15-15V191.05a15,15,0,0,0-15-15h-30.88a135.11,135.11,0,0,0-20.43-49.13L1679.82,105a15,15,0,0,0,0-21.21l-16.21-16.21a15,15,0,0,0-21.21,0l-22,22a135.13,135.13,0,0,0-49.06-20.23V38.2a15,15,0,0,0-15-15h-22.92a15,15,0,0,0-15,15V69.42a135.12,135.12,0,0,0-48.93,20.29l-22.09-22.09a15,15,0,0,0-21.21,0L1410,83.83a15,15,0,0,0,0,21.21l22.09,22.09a135.12,135.12,0,0,0-20.29,48.93h-31.22a15,15,0,0,0-15,15V214a15,15,0,0,0,15,15h31.15A135.13,135.13,0,0,0,1432,278l-22,22a15,15,0,0,0,0,21.21l16.21,16.21a15,15,0,0,0,21.21,0l21.89-21.89a135.11,135.11,0,0,0,49.13,20.43v30.88a15,15,0,0,0,15,15h22.92a15,15,0,0,0,15-15V336a135.12,135.12,0,0,0,49.26-20.36l21.76,21.76a15,15,0,0,0,21.21,0l16.21-16.21A15,15,0,0,0,1679.82,300ZM1482.3,265.46a88.79,88.79,0,1,1,125.57,0A88.79,88.79,0,0,1,1482.3,265.46Z"/></svg>