<svg id="Middle" xmlns="http://www.w3.org/2000/svg" viewBox="0 0 2000 1500"><defs><style>.cls-1,.cls-2{fill:#fff;}.cls-1{opacity:0.17;}.cls-2{opacity:0.61;}</style></defs><title>MiddleClouds</title><circle class="cls-1" cy="68" r="68"/><circle class="cls-1" cx="1866.01" cy="58.84" r="43.29"/><path class="cls-2" d="M2134.7,689.39c0-143.09-112.05-259.09-250.28-259.09-131.64,0-239.53,105.21-249.52,238.83a324.83,324.83,0,0,0-39.58-2.42c-143.21,0-265.28,93.67-312.17,225.05-6.76-.66-13.6-1-20.53-1a210,210,0,0,0-112.49,32.61,210.43,210.43,0,0,0-240.58-16C861.28,798.59,755.14,723.07,632,723.07c-75,0-143.61,28-196.75,74.38-38.45-129-154.57-222.83-291.85-222.83-6.5,0-12.95.24-19.35.65a329.63,329.63,0,0,0,3.42-47.38C127.42,353.3-9.3,211.76-178,211.76S-483.33,353.3-483.33,527.89c0,170.58,130.51,309.57,293.79,315.88l83.9,812.51H2072.3L2044,889C2099.41,841.43,2134.7,769.68,2134.7,689.39Z"/></svg>