<svg id="Layer_9" data-name="Layer 9" xmlns="http://www.w3.org/2000/svg" viewBox="0 0 2000 1500"><defs><style>.cls-1{fill:#4a4f4f;}.cls-2{fill:#262b2b;}.cls-3{fill:#98a8a9;}.cls-4,.cls-5{fill:#788889;}.cls-5{opacity:0.47;}.cls-6{fill:#dae4e5;}.cls-7{fill:#b5c4c4;}.cls-8{fill:#5b6766;}</style></defs><title>Tech</title><rect class="cls-1" x="51.78" y="358.26" width="920.93" height="611.79"/><rect class="cls-2" x="81.27" y="358.26" width="480.3" height="611.79"/><rect class="cls-2" x="618.96" y="358.26" width="353.75" height="611.79"/><rect class="cls-3" x="51.78" y="855.04" width="920.93" height="41.91"/><rect class="cls-4" x="316.17" y="847.31" width="32.22" height="57.38"/><rect class="cls-5" x="303.6" y="855.04" width="12.57" height="41.91"/><rect class="cls-4" x="590.54" y="847.31" width="32.22" height="57.38"/><rect class="cls-5" x="577.97" y="855.04" width="12.57" height="41.91"/><rect class="cls-4" x="860.94" y="847.31" width="32.22" height="57.38"/><rect class="cls-5" x="848.37" y="855.04" width="12.57" height="41.91"/><rect class="cls-3" x="51.78" y="739.84" width="920.93" height="41.91"/><rect class="cls-4" x="316.17" y="732.11" width="32.22" height="57.38"/><rect class="cls-5" x="303.6" y="739.84" width="12.57" height="41.91"/><rect class="cls-4" x="590.54" y="732.11" width="32.22" height="57.38"/><rect class="cls-5" x="577.97" y="739.84" width="12.57" height="41.91"/><rect class="cls-4" x="860.94" y="732.11" width="32.22" height="57.38"/><rect class="cls-5" x="848.37" y="739.84" width="12.57" height="41.91"/><rect class="cls-1" x="51.78" y="1016.59" width="920.93" height="432.42"/><rect class="cls-2" x="81.27" y="1016.59" width="480.3" height="432.42"/><rect class="cls-2" x="618.96" y="1016.59" width="353.75" height="432.42"/><rect class="cls-3" x="51.78" y="1273.69" width="920.93" height="73.4"/><polygon class="cls-1" points="852.04 197.41 857.55 206.96 858.62 199.34 852.04 197.41"/><polygon class="cls-3" points="47.8 204.67 56.48 212.52 66.7 211.52 47.8 204.67"/><rect class="cls-3" x="43.95" y="-406.48" width="773.71" height="629.62" rx="39.47" ry="39.47"/><rect class="cls-6" x="35.35" y="-414.22" width="773.71" height="629.62" rx="39.47" ry="39.47"/><circle class="cls-3" cx="100.11" cy="156.28" r="38.46"/><rect class="cls-1" x="93.17" y="129.51" width="13.87" height="53.42" rx="6.93" ry="6.93"/><rect class="cls-1" x="93.17" y="129.51" width="13.87" height="53.42" rx="6.93" ry="6.93" transform="translate(-56.11 256.33) rotate(-90)"/><rect class="cls-1" x="1072.87" y="1151.39" width="408.92" height="629.62" rx="39.47" ry="39.47" transform="translate(2554.67 2932.4) rotate(180)"/><rect class="cls-3" x="1077.42" y="1159.13" width="408.92" height="629.62" rx="39.47" ry="39.47" transform="translate(2563.76 2947.88) rotate(180)"/><circle class="cls-6" cx="1436.96" cy="1206.29" r="26.5"/><rect class="cls-1" x="1432.18" y="1187.93" width="9.56" height="36.81" rx="4.78" ry="4.78" transform="translate(2873.92 2412.67) rotate(180)"/><rect class="cls-1" x="1432.18" y="1187.93" width="9.56" height="36.81" rx="4.78" ry="4.78" transform="translate(2643.3 -230.63) rotate(90)"/><circle class="cls-6" cx="1117.71" cy="1206.29" r="26.5"/><rect class="cls-1" x="1112.93" y="1187.93" width="9.56" height="36.81" rx="4.78" ry="4.78" transform="translate(2235.41 2412.67) rotate(180)"/><rect class="cls-1" x="1112.93" y="1187.93" width="9.56" height="36.81" rx="4.78" ry="4.78" transform="translate(2324.04 88.63) rotate(90)"/><circle class="cls-3" cx="739.62" cy="156.28" r="38.46"/><rect class="cls-1" x="732.69" y="129.51" width="13.87" height="53.42" rx="6.93" ry="6.93"/><rect class="cls-1" x="732.69" y="129.51" width="13.87" height="53.42" rx="6.93" ry="6.93" transform="translate(583.4 895.84) rotate(-90)"/><rect class="cls-3" x="163.41" y="-219.98" width="339.69" height="292.25"/><rect class="cls-6" x="1204.87" y="1321.87" width="223.64" height="126.51" transform="translate(2633.39 2770.25) rotate(180)"/><polygon class="cls-4" points="51.78 1449.01 92.08 1408.71 92.08 1016.59 51.78 1016.59 51.78 1449.01"/><polygon class="cls-3" points="92.08 1408.71 972.71 1408.71 972.71 1449.01 51.78 1449.01 92.08 1408.71"/><path class="cls-4" d="M972.71,1147.61H495.13a184.46,184.46,0,0,1-176.54-131H224c11.49,116,109.31,206.54,228.3,206.54H972.71Z"/><rect class="cls-4" x="156.08" y="1260.14" width="32.22" height="100.5"/><rect class="cls-5" x="143.51" y="1273.69" width="12.57" height="73.4"/><rect class="cls-4" x="430.45" y="1260.14" width="32.22" height="100.5"/><rect class="cls-5" x="417.88" y="1273.69" width="12.57" height="73.4"/><rect class="cls-4" x="700.86" y="1260.14" width="32.22" height="100.5"/><rect class="cls-5" x="688.29" y="1273.69" width="12.57" height="73.4"/><polygon class="cls-7" points="92.08 1408.71 51.78 1449.01 121.12 1449.01 161.41 1408.71 92.08 1408.71"/><polygon class="cls-7" points="515.02 1408.71 474.73 1449.01 521.28 1449.01 561.57 1408.71 515.02 1408.71"/><polygon class="cls-7" points="443.43 1408.71 403.14 1449.01 449.69 1449.01 489.98 1408.71 443.43 1408.71"/><polygon class="cls-7" points="536.54 1408.71 496.24 1449.01 542.8 1449.01 583.09 1408.71 536.54 1408.71"/><polygon class="cls-7" points="188.3 1449.01 228.6 1408.71 201.71 1408.71 161.41 1449.01 207.97 1449.01 207.97 1449.01 188.3 1449.01"/><polygon class="cls-7" points="676.67 1449.01 716.97 1408.71 690.08 1408.71 649.78 1449.01 696.34 1449.01 696.34 1449.01 676.67 1449.01"/><polygon class="cls-7" points="726.38 1449.01 766.67 1408.71 739.78 1408.71 699.49 1449.01 746.04 1449.01 746.04 1449.01 726.38 1449.01"/><polygon class="cls-7" points="743.86 1449.01 784.15 1408.71 757.26 1408.71 716.97 1449.01 763.52 1449.01 763.52 1449.01 743.86 1449.01"/><polygon class="cls-7" points="972.71 1408.71 967.25 1408.71 926.95 1449.01 953.84 1449.01 972.71 1430.14 972.71 1408.71"/><polygon class="cls-8" points="51.78 1449.01 92.08 1408.71 92.08 1368.42 51.78 1408.71 51.78 1449.01"/><polygon class="cls-8" points="51.78 1360.64 92.08 1320.35 92.08 1280.05 51.78 1320.35 51.78 1360.64"/><polygon class="cls-8" points="51.78 1320.35 92.08 1280.05 92.08 1239.76 51.78 1280.05 51.78 1320.35"/><polygon class="cls-8" points="51.78 1313.98 92.08 1273.69 92.08 1233.39 51.78 1273.69 51.78 1313.98"/><polygon class="cls-8" points="51.78 1191.68 92.08 1151.39 92.08 1111.1 51.78 1151.39 51.78 1191.68"/><polygon class="cls-8" points="51.78 1160.15 92.08 1119.86 92.08 1079.57 51.78 1119.86 51.78 1160.15"/><polygon class="cls-8" points="51.78 1101.92 92.08 1061.62 92.08 1039.27 51.78 1079.57 51.78 1101.92"/><rect class="cls-1" x="1272.43" y="279.58" width="920.93" height="432.42" transform="translate(1237.1 2228.68) rotate(-90)"/><rect class="cls-2" x="1492.74" y="470.41" width="480.3" height="432.42" transform="translate(1046.27 2419.51) rotate(-90)"/><rect class="cls-2" x="1556.01" y="-4.01" width="353.75" height="432.42" transform="translate(1520.69 1945.09) rotate(-90)"/><rect class="cls-3" x="1773.78" y="35.33" width="73.4" height="920.93"/><polygon class="cls-4" points="1949.1 956.25 1908.81 915.96 1516.68 915.96 1516.68 956.25 1949.1 956.25"/><polygon class="cls-3" points="1908.81 915.96 1908.81 35.33 1949.1 35.33 1949.1 956.25 1908.81 915.96"/><path class="cls-4" d="M1647.7,35.33V512.91a184.46,184.46,0,0,1-131,176.54V784c116-11.49,206.54-109.31,206.54-228.3V35.33Z"/><rect class="cls-4" x="1794.37" y="785.6" width="32.22" height="100.5" transform="translate(974.64 2646.33) rotate(-90)"/><rect class="cls-5" x="1804.2" y="821.54" width="12.57" height="73.4" transform="translate(952.24 2668.72) rotate(-90)"/><rect class="cls-4" x="1794.37" y="511.23" width="32.22" height="100.5" transform="translate(1249.01 2371.96) rotate(-90)"/><rect class="cls-5" x="1804.2" y="547.17" width="12.57" height="73.4" transform="translate(1226.61 2394.36) rotate(-90)"/><rect class="cls-4" x="1794.37" y="240.82" width="32.22" height="100.5" transform="translate(1519.41 2101.55) rotate(-90)"/><rect class="cls-5" x="1804.2" y="276.77" width="12.57" height="73.4" transform="translate(1497.02 2123.95) rotate(-90)"/><polygon class="cls-7" points="1908.81 915.96 1949.1 956.25 1949.1 886.92 1908.81 846.63 1908.81 915.96"/><polygon class="cls-7" points="1908.81 493.02 1949.1 533.31 1949.1 486.76 1908.81 446.46 1908.81 493.02"/><polygon class="cls-7" points="1908.81 564.61 1949.1 604.9 1949.1 558.35 1908.81 518.05 1908.81 564.61"/><polygon class="cls-7" points="1908.81 471.5 1949.1 511.79 1949.1 465.24 1908.81 424.95 1908.81 471.5"/><polygon class="cls-7" points="1949.1 819.74 1908.81 779.44 1908.81 806.33 1949.1 846.63 1949.1 800.07 1949.1 800.07 1949.1 819.74"/><polygon class="cls-7" points="1949.1 331.37 1908.81 291.07 1908.81 317.96 1949.1 358.25 1949.1 311.7 1949.1 311.7 1949.1 331.37"/><polygon class="cls-7" points="1949.1 281.66 1908.81 241.37 1908.81 268.26 1949.1 308.55 1949.1 262 1949.1 262 1949.1 281.66"/><polygon class="cls-7" points="1949.1 264.18 1908.81 223.89 1908.81 250.78 1949.1 291.07 1949.1 244.52 1949.1 244.52 1949.1 264.18"/><polygon class="cls-7" points="1908.81 35.33 1908.81 40.79 1949.1 81.08 1949.1 54.2 1930.23 35.33 1908.81 35.33"/><polygon class="cls-8" points="1949.1 956.25 1908.81 915.96 1868.51 915.96 1908.81 956.25 1949.1 956.25"/><polygon class="cls-8" points="1860.73 956.25 1820.44 915.96 1780.14 915.96 1820.44 956.25 1860.73 956.25"/><polygon class="cls-8" points="1820.44 956.25 1780.14 915.96 1739.85 915.96 1780.14 956.25 1820.44 956.25"/><polygon class="cls-8" points="1814.08 956.25 1773.78 915.96 1733.49 915.96 1773.78 956.25 1814.08 956.25"/><polygon class="cls-8" points="1691.78 956.25 1651.48 915.96 1611.19 915.96 1651.48 956.25 1691.78 956.25"/><polygon class="cls-8" points="1660.25 956.25 1619.95 915.96 1579.66 915.96 1619.95 956.25 1660.25 956.25"/><polygon class="cls-8" points="1602.01 956.25 1561.72 915.96 1539.37 915.96 1579.66 956.25 1602.01 956.25"/><rect class="cls-1" x="1533.12" y="1151.39" width="408.92" height="629.62" rx="39.47" ry="39.47" transform="translate(3475.16 2932.4) rotate(180)"/><rect class="cls-3" x="1537.66" y="1159.13" width="408.92" height="629.62" rx="39.47" ry="39.47" transform="translate(3484.25 2947.88) rotate(180)"/><rect class="cls-6" x="1665.12" y="1321.87" width="223.64" height="126.51" transform="translate(3553.88 2770.25) rotate(180)"/><rect class="cls-2" x="1675.72" y="1331.63" width="4.19" height="106.99" transform="translate(3355.63 2770.25) rotate(180)"/><rect class="cls-2" x="1682.7" y="1331.63" width="4.19" height="106.99" transform="translate(3369.58 2770.25) rotate(180)"/><rect class="cls-2" x="1696.62" y="1331.63" width="17.55" height="106.99" transform="translate(3410.79 2770.25) rotate(180)"/><rect class="cls-2" x="1717.98" y="1331.63" width="4.55" height="106.99" transform="translate(3440.51 2770.25) rotate(180)"/><rect class="cls-2" x="1734.32" y="1331.63" width="4.55" height="106.99" transform="translate(3473.19 2770.25) rotate(180)"/><rect class="cls-2" x="1745.36" y="1331.63" width="4.55" height="106.99" transform="translate(3495.27 2770.25) rotate(180)"/><rect class="cls-2" x="1755.1" y="1331.63" width="2.32" height="106.99" transform="translate(3512.52 2770.26) rotate(180)"/><rect class="cls-2" x="1762.8" y="1331.63" width="9.7" height="106.99" transform="translate(3535.3 2770.26) rotate(180)"/><rect class="cls-2" x="1774.6" y="1331.63" width="2.51" height="106.99" transform="translate(3551.72 2770.26) rotate(180)"/><rect class="cls-2" x="1789.74" y="1331.63" width="2.51" height="106.99" transform="translate(3581.99 2770.26) rotate(180)"/><rect class="cls-2" x="1798.56" y="1331.63" width="13.94" height="106.99" transform="translate(3611.06 2770.25) rotate(180)"/><rect class="cls-2" x="1816.66" y="1331.63" width="4.19" height="106.99" transform="translate(3637.52 2770.25) rotate(180)"/><rect class="cls-2" x="1823.64" y="1331.63" width="4.19" height="106.99" transform="translate(3651.47 2770.25) rotate(180)"/><rect class="cls-2" x="1843.51" y="1331.63" width="11.61" height="106.99" transform="translate(3698.62 2770.25) rotate(180)"/><rect class="cls-2" x="1837.7" y="1331.63" width="3.21" height="106.99" transform="translate(3678.61 2770.25) rotate(180)"/><rect class="cls-2" x="1219.4" y="1331.63" width="4.19" height="106.99" transform="translate(2442.99 2770.25) rotate(180)"/><rect class="cls-2" x="1226.37" y="1331.63" width="4.19" height="106.99" transform="translate(2456.94 2770.25) rotate(180)"/><rect class="cls-2" x="1240.3" y="1331.63" width="17.55" height="106.99" transform="translate(2498.15 2770.25) rotate(180)"/><rect class="cls-2" x="1261.66" y="1331.63" width="4.55" height="106.99" transform="translate(2527.86 2770.25) rotate(180)"/><rect class="cls-2" x="1278" y="1331.63" width="4.55" height="106.99" transform="translate(2560.54 2770.25) rotate(180)"/><rect class="cls-2" x="1289.04" y="1331.63" width="4.55" height="106.99" transform="translate(2582.63 2770.25) rotate(180)"/><rect class="cls-2" x="1298.78" y="1331.63" width="2.32" height="106.99" transform="translate(2599.88 2770.26) rotate(180)"/><rect class="cls-2" x="1306.48" y="1331.63" width="9.7" height="106.99" transform="translate(2622.65 2770.26) rotate(180)"/><rect class="cls-2" x="1318.28" y="1331.63" width="2.51" height="106.99" transform="translate(2639.08 2770.26) rotate(180)"/><rect class="cls-2" x="1333.42" y="1331.63" width="2.51" height="106.99" transform="translate(2669.34 2770.26) rotate(180)"/><rect class="cls-2" x="1342.24" y="1331.63" width="13.94" height="106.99" transform="translate(2698.41 2770.25) rotate(180)"/><rect class="cls-2" x="1360.34" y="1331.63" width="4.19" height="106.99" transform="translate(2724.87 2770.25) rotate(180)"/><rect class="cls-2" x="1367.32" y="1331.63" width="4.19" height="106.99" transform="translate(2738.82 2770.25) rotate(180)"/><rect class="cls-2" x="1387.18" y="1331.63" width="11.61" height="106.99" transform="translate(2785.98 2770.25) rotate(180)"/><rect class="cls-2" x="1381.38" y="1331.63" width="3.21" height="106.99" transform="translate(2765.96 2770.25) rotate(180)"/><circle class="cls-6" cx="1900.74" cy="1206.29" r="26.5"/><rect class="cls-1" x="1895.96" y="1187.93" width="9.56" height="36.81" rx="4.78" ry="4.78" transform="translate(3801.48 2412.67) rotate(180)"/><rect class="cls-1" x="1895.96" y="1187.93" width="9.56" height="36.81" rx="4.78" ry="4.78" transform="translate(3107.07 -694.41) rotate(90)"/><circle class="cls-6" cx="1581.48" cy="1206.29" r="26.5"/><rect class="cls-1" x="1576.71" y="1187.93" width="9.56" height="36.81" rx="4.78" ry="4.78" transform="translate(3162.97 2412.67) rotate(180)"/><rect class="cls-1" x="1576.71" y="1187.93" width="9.56" height="36.81" rx="4.78" ry="4.78" transform="translate(2787.82 -375.15) rotate(90)"/><rect class="cls-6" x="183.83" y="-73.85" width="223.64" height="126.51" transform="translate(591.31 -21.19) rotate(180)"/><rect class="cls-2" x="198.36" y="-64.09" width="4.19" height="106.99" transform="translate(400.91 -21.19) rotate(180)"/><rect class="cls-2" x="205.34" y="-64.09" width="4.19" height="106.99" transform="translate(414.86 -21.19) rotate(180)"/><rect class="cls-2" x="219.26" y="-64.09" width="17.55" height="106.99" transform="translate(456.08 -21.19) rotate(180)"/><rect class="cls-2" x="240.62" y="-64.09" width="4.55" height="106.99" transform="translate(485.79 -21.19) rotate(180)"/><rect class="cls-2" x="256.96" y="-64.09" width="4.55" height="106.99" transform="translate(518.47 -21.19) rotate(180)"/><rect class="cls-2" x="268.01" y="-64.09" width="4.55" height="106.99" transform="translate(540.56 -21.19) rotate(180)"/><rect class="cls-2" x="277.74" y="-64.09" width="2.32" height="106.99" transform="translate(557.8 -21.19) rotate(180)"/><rect class="cls-2" x="285.44" y="-64.09" width="9.7" height="106.99" transform="translate(580.58 -21.19) rotate(180)"/><rect class="cls-2" x="297.24" y="-64.09" width="2.51" height="106.99" transform="translate(597 -21.19) rotate(180)"/><rect class="cls-2" x="312.38" y="-64.09" width="2.51" height="106.99" transform="translate(627.27 -21.19) rotate(180)"/><rect class="cls-2" x="321.2" y="-64.09" width="13.94" height="106.99" transform="translate(656.34 -21.19) rotate(180)"/><rect class="cls-2" x="339.3" y="-64.09" width="4.19" height="106.99" transform="translate(682.8 -21.19) rotate(180)"/><rect class="cls-2" x="346.28" y="-64.09" width="4.19" height="106.99" transform="translate(696.75 -21.19) rotate(180)"/><rect class="cls-2" x="366.15" y="-64.09" width="11.61" height="106.99" transform="translate(743.9 -21.19) rotate(180)"/><rect class="cls-2" x="360.34" y="-64.09" width="3.21" height="106.99" transform="translate(723.89 -21.19) rotate(180)"/><rect class="cls-3" x="51.78" y="614.51" width="920.93" height="41.91"/><polygon class="cls-4" points="51.78 970.04 92.08 929.75 92.08 537.63 51.78 537.63 51.78 970.04"/><polygon class="cls-3" points="92.08 929.75 972.71 929.75 972.71 970.04 51.78 970.04 92.08 929.75"/><path class="cls-4" d="M972.71,496.12H495.13a184.46,184.46,0,0,1-176.54-131H224c11.49,116,109.31,206.54,228.3,206.54H972.71Z"/><rect class="cls-4" x="316.17" y="606.77" width="32.22" height="57.38"/><rect class="cls-5" x="303.6" y="614.51" width="12.57" height="41.91"/><rect class="cls-4" x="590.54" y="606.77" width="32.22" height="57.38"/><rect class="cls-5" x="577.97" y="614.51" width="12.57" height="41.91"/><rect class="cls-4" x="860.94" y="606.77" width="32.22" height="57.38"/><rect class="cls-5" x="848.37" y="614.51" width="12.57" height="41.91"/><polygon class="cls-7" points="92.08 929.75 51.78 970.05 121.12 970.05 161.41 929.75 92.08 929.75"/><polygon class="cls-7" points="515.02 929.75 474.73 970.05 521.28 970.05 561.57 929.75 515.02 929.75"/><polygon class="cls-7" points="443.43 929.75 403.14 970.05 449.69 970.05 489.98 929.75 443.43 929.75"/><polygon class="cls-7" points="536.54 929.75 496.24 970.05 542.8 970.05 583.09 929.75 536.54 929.75"/><polygon class="cls-7" points="188.3 970.05 228.6 929.75 201.71 929.75 161.41 970.05 207.97 970.05 207.97 970.05 188.3 970.05"/><polygon class="cls-7" points="676.67 970.05 716.97 929.75 690.08 929.75 649.78 970.05 696.34 970.05 696.34 970.05 676.67 970.05"/><polygon class="cls-7" points="726.38 970.05 766.67 929.75 739.78 929.75 699.49 970.05 746.04 970.05 746.04 970.05 726.38 970.05"/><polygon class="cls-7" points="743.86 970.05 784.15 929.75 757.26 929.75 716.97 970.05 763.52 970.05 763.52 970.05 743.86 970.05"/><polygon class="cls-8" points="51.78 970.05 92.08 929.75 92.08 889.46 51.78 929.75 51.78 970.05"/><polygon class="cls-8" points="51.78 881.68 92.08 841.38 92.08 801.09 51.78 841.38 51.78 881.68"/><polygon class="cls-8" points="51.78 841.38 92.08 801.09 92.08 760.8 51.78 801.09 51.78 841.38"/><polygon class="cls-8" points="51.78 835.02 92.08 794.73 92.08 754.43 51.78 794.73 51.78 835.02"/><polygon class="cls-8" points="51.78 712.72 92.08 672.43 92.08 632.14 51.78 672.43 51.78 712.72"/><polygon class="cls-8" points="51.78 681.19 92.08 640.9 92.08 600.61 51.78 640.9 51.78 681.19"/><polygon class="cls-8" points="51.78 622.96 92.08 582.66 92.08 560.31 51.78 600.61 51.78 622.96"/><rect class="cls-4" x="51.78" y="358.26" width="40.29" height="179.37"/><polygon class="cls-8" points="51.78 560.31 92.08 520.02 92.08 479.72 51.78 520.02 51.78 560.31"/><polygon class="cls-8" points="51.78 502.07 92.08 461.78 92.08 439.43 51.78 479.72 51.78 502.07"/><polygon class="cls-8" points="51.78 427.74 92.08 387.45 92.08 365.1 51.78 405.39 51.78 427.74"/></svg>