<svg id="Top_Clouds" data-name="Top Clouds" xmlns="http://www.w3.org/2000/svg" viewBox="0 0 2000 1500"><defs><style>.cls-1,.cls-2{fill:#fff;}.cls-2{opacity:0.86;}</style></defs><title>TopClouds</title><circle class="cls-1" cx="127.89" cy="693.39" r="33.1"/><circle class="cls-2" cx="383.08" cy="345.67" r="60.62"/><circle class="cls-1" cx="1978.71" cy="365.12" r="155.99"/><path class="cls-1" d="M1903.24,710.5a169.11,169.11,0,0,0-157.82,108.36A149.95,149.95,0,0,0,1534,983.27c-.94,0-1.88,0-2.82,0a220.36,220.36,0,0,0-187,103.62c-1.44,0-2.88-.05-4.33-.05a220.19,220.19,0,0,0-176.76,88.64,144.78,144.78,0,0,0-182.34,39.08A110.33,110.33,0,0,0,850.59,1241a82.63,82.63,0,0,0-72.67-19.43,72,72,0,0,0-105.52-29.4,110.27,110.27,0,0,0-176.28-37.32,144.77,144.77,0,0,0-118.63-79.45c-24.11-111.92-123.63-195.8-242.76-195.8A251.18,251.18,0,0,0,109,880.89a160.9,160.9,0,0,0,2.38-27.59A159.91,159.91,0,0,0-48.58,693.39,159.91,159.91,0,0,0-208.49,853.3,160,160,0,0,0-83.54,1009.37a247.24,247.24,0,0,0-30.07,118.54,248.83,248.83,0,0,0,7.48,60.66L-181.29,1559l2194.38-31.15v-252.1a220.51,220.51,0,0,0,15.26-282.47A169.06,169.06,0,0,0,1903.24,710.5Z"/><circle class="cls-2" cx="1644.2" cy="209.13" r="68.49"/></svg>