<svg id="Layer_1" data-name="Layer 1" xmlns="http://www.w3.org/2000/svg" viewBox="0 0 200 200"><defs><style>.cls-1,.cls-3{fill:#8b8b8b;}.cls-1{stroke:#231f20;}.cls-1,.cls-3,.cls-4,.cls-5{stroke-miterlimit:10;}.cls-2{fill:#fff;}.cls-3,.cls-4,.cls-5{stroke:#000;}.cls-4{fill:#595959;}.cls-5{fill:#e1e1e1;}.cls-6{fill:#231f20;}</style></defs><title>WorkFlow</title><rect class="cls-1" x="141.6" y="142.26" width="8.02" height="19.77"/><rect class="cls-2" x="13.47" y="19.69" width="13.07" height="28.94"/><rect class="cls-3" x="13.47" y="19.69" width="13.07" height="28.94"/><path class="cls-4" d="M33.08,27.18a6.53,6.53,0,0,1-6.53-6.53v27a6.53,6.53,0,1,1,13.07,0v-27A6.53,6.53,0,0,1,33.08,27.18Z"/><path class="cls-3" d="M72.54,19.69H39.61V48.63H72.54A14.51,14.51,0,0,1,87,63.13V88.71a21.55,21.55,0,0,0,7.12-16V41.31A21.63,21.63,0,0,0,72.54,19.69Z"/><polygon class="cls-5" points="65.84 100.99 65.84 48.63 48.66 48.63 48.66 100.99 45.65 100.99 45.65 168.53 48.66 168.53 65.84 168.53 68.86 168.53 68.86 100.99 65.84 100.99"/><path class="cls-3" d="M105,83.16V96.67h8.41v21.1h0a30.66,30.66,0,0,0,30.66,30.66h2.38a30.66,30.66,0,0,0,30.66-30.66h0V96.67H188V83.16Z"/><rect class="cls-5" x="125.46" y="42.81" width="7.61" height="40.35"/><rect class="cls-5" x="159.91" y="42.81" width="7.61" height="40.35"/><rect class="cls-6" x="113.44" y="95.87" width="63.7" height="7.98"/><rect class="cls-4" x="105.02" y="83.16" width="82.93" height="13.51"/><rect class="cls-1" x="45.65" y="100.99" width="23.21" height="67.54"/><rect class="cls-6" x="45.65" y="109.29" width="23.21" height="6.51"/><rect class="cls-4" x="48.66" y="48.63" width="17.18" height="5.55"/></svg>